# Blender 5.0.1
# www.blender.org
mtllib Monkey.mtl
o Torus
v 0.727147 -0.337254 -0.959175
v 0.771771 -0.221481 -0.922404
v 0.765470 -0.118655 -0.844084
v 0.709932 -0.056330 -0.745200
v 0.620040 -0.051205 -0.652249
v 0.519880 -0.104652 -0.590136
v 0.436288 -0.202352 -0.575505
v 0.391665 -0.318126 -0.612276
v 0.397966 -0.420951 -0.690596
v 0.453503 -0.483276 -0.789480
v 0.543395 -0.488402 -0.882431
v 0.643556 -0.434954 -0.944544
v 0.617920 -0.261755 -1.054590
v 0.665470 -0.148004 -1.015262
v 0.667165 -0.050706 -0.929957
v 0.622550 0.004069 -0.821532
v 0.543581 0.001645 -0.719039
v 0.451416 -0.057330 -0.649942
v 0.370752 -0.157053 -0.632754
v 0.323202 -0.270803 -0.672082
v 0.321507 -0.368102 -0.757387
v 0.366121 -0.422877 -0.865812
v 0.445091 -0.420453 -0.968305
v 0.537255 -0.361478 -1.037402
v 0.498119 -0.181777 -1.131960
v 0.548880 -0.070170 -1.090560
v 0.559345 0.021274 -0.999591
v 0.526710 0.068052 -0.883428
v 0.459721 0.057629 -0.773198
v 0.376326 -0.007200 -0.698437
v 0.298872 -0.109066 -0.679176
v 0.248111 -0.220673 -0.720577
v 0.237646 -0.312117 -0.811546
v 0.270281 -0.358895 -0.927708
v 0.337270 -0.348472 -1.037938
v 0.420665 -0.283643 -1.112700
v 0.369796 -0.098689 -1.189963
v 0.423995 0.010692 -1.147008
v 0.443853 0.096053 -1.051793
v 1.217383 0.134522 -0.929830
v 1.163226 0.115791 -0.813800
v 0.295894 0.044879 -0.734793
v 0.221878 -0.059213 -0.713978
v 0.167679 -0.168594 -0.756933
v 0.147820 -0.253955 -0.852148
v 0.167622 -0.292424 -0.974110
v 0.221779 -0.273693 -1.090140
v 0.295780 -0.202781 -1.169148
v 0.235145 -0.013912 -1.227605
v 0.292952 0.093198 -1.183641
v 0.322668 0.172353 -1.085670
v 1.109663 0.202344 -0.959944
v 1.068971 0.175135 -0.840149
v 0.211495 0.098017 -0.758386
v 0.141087 -0.008347 -0.736563
v 0.083280 -0.115456 -0.780526
v 0.053564 -0.194611 -0.878497
v 0.059901 -0.224603 -1.004224
v 0.100593 -0.197394 -1.124018
v 0.164737 -0.120276 -1.205781
v 0.096471 0.071103 -1.244242
v 0.157994 0.175934 -1.199832
v 0.197861 0.248866 -1.100644
v 0.205392 0.270356 -0.973253
v 0.178567 0.234645 -0.851795
v 0.124575 0.151304 -0.768814
v 0.057883 0.042662 -0.746545
v -0.003640 -0.062170 -0.790954
v -0.043507 -0.135101 -0.890143
v -0.051038 -0.156591 -1.017534
v -0.024213 -0.120881 -1.138991
v 0.029779 -0.037539 -1.221972
v -0.043854 0.154901 -1.239590
v 0.021429 0.257487 -1.195305
v 0.071569 0.324284 -1.096457
v 0.093132 0.337394 -0.969532
v 0.080340 0.293304 -0.848539
v 0.036620 0.203828 -0.765898
v -0.026312 0.092941 -0.743754
v -0.091595 -0.009645 -0.788038
v -0.141735 -0.076442 -0.886887
v -0.163298 -0.089552 -1.013812
v -0.150505 -0.045462 -1.134804
v -0.106786 0.044014 -1.217445
v -0.183428 0.236049 -1.213728
v -0.114405 0.336461 -1.170136
v -0.054048 0.397317 -1.073181
v -0.018528 0.402312 -0.948842
v -0.017362 0.350107 -0.830436
v -0.050864 0.254691 -0.749688
v -0.110057 0.141629 -0.728237
v -0.179079 0.041218 -0.771828
v -0.239437 -0.019639 -0.868783
v -0.274957 -0.024634 -0.993122
v -0.276122 0.027571 -1.111529
v -0.242620 0.122987 -1.192276
v -0.319864 0.313158 -1.167099
v -0.247186 0.411504 -1.124756
v -0.176840 0.466715 -1.031215
v -0.127676 0.464000 -0.911539
v -0.112868 0.404084 -0.797795
v -0.136382 0.303023 -0.720461
v -0.191918 0.187895 -0.700259
v -0.264596 0.089549 -0.742602
v -0.334942 0.034337 -0.836143
v -0.384106 0.037053 -0.955819
v -0.398915 0.096969 -1.069563
v -0.375400 0.198030 -1.146896
v -0.450826 0.384909 -1.100500
v -0.374639 0.481332 -1.059942
v -0.294707 0.531291 -0.971276
v -0.232447 0.521400 -0.858260
v -0.204541 0.454309 -0.751176
v -0.218468 0.347995 -0.678718
v -0.270496 0.230945 -0.660300
v -0.346683 0.134522 -0.700858
v -0.426616 0.084563 -0.789524
v -0.488876 0.094454 -0.902540
v -0.516781 0.161544 -1.009624
v -0.502854 0.267858 -1.082083
v -0.574076 0.450074 -1.015072
v -0.494586 0.544750 -0.976803
v -0.405631 0.589939 -0.894391
v -0.331046 0.573532 -0.789917
v -0.290816 0.499925 -0.691376
v -0.295720 0.388840 -0.625172
v -0.344445 0.270044 -0.609043
v -0.423935 0.175367 -0.647312
v -0.512890 0.130178 -0.729724
v -0.587475 0.146586 -0.834198
v -0.627705 0.220193 -0.932739
v -0.622801 0.331277 -0.998943
v -0.687502 0.507538 -0.912275
v -0.604974 0.600675 -0.876761
v -0.507715 0.641657 -0.801874
v -0.421787 0.619503 -0.707680
v -0.370215 0.540150 -0.619419
v -0.366816 0.424859 -0.560739
v -0.412502 0.304523 -0.547365
v -0.495030 0.211385 -0.582879
v -0.592289 0.170403 -0.657766
v -0.678217 0.192557 -0.751960
v -0.729789 0.271911 -0.840222
v -0.733188 0.387202 -0.898901
v -0.789165 0.556317 -0.793870
v -0.703912 0.648148 -0.761528
v -0.599212 0.685559 -0.695309
v -0.503118 0.658527 -0.612956
v -0.441379 0.574295 -0.536535
v -0.430538 0.455434 -0.486523
v -0.473499 0.333790 -0.476322
v -0.558752 0.241960 -0.508663
v -0.663453 0.204549 -0.574883
v -0.759547 0.231581 -0.657236
v -0.821286 0.315812 -0.733657
v -0.832127 0.434674 -0.783668
v -0.877326 0.595578 -0.661880
v -0.789711 0.686357 -0.633075
v -0.678556 0.720894 -0.576518
v -0.573646 0.689936 -0.507364
v -0.503091 0.601778 -0.444142
v -0.485796 0.480042 -0.403793
v -0.526396 0.357347 -0.397128
v -0.614011 0.266569 -0.425933
v -0.725165 0.232032 -0.482490
v -0.830075 0.262990 -0.551644
v -0.900630 0.351147 -0.614866
v -0.917925 0.472883 -0.655215
v -0.950475 0.624649 -1.376376
v -0.860900 0.714648 -1.351411
v -0.744390 0.747057 -0.447536
v -0.632165 0.713193 -0.392713
v -0.554295 0.622128 -0.343823
v -0.531645 0.498263 -0.313965
v -0.570285 0.374789 -0.311140
v -0.659860 0.284790 -0.336105
v -0.776370 0.252381 -0.382170
v -0.888595 0.286246 -0.436993
v -0.966464 0.377311 -0.485884
v -0.989114 0.501175 -0.515742
v -1.007361 0.643032 -1.224189
v -0.916262 0.732538 -1.203302
v -0.795588 0.763602 -0.310568
v -0.677674 0.727899 -0.270963
v -0.594116 0.634995 -0.237292
v -0.567302 0.509786 -0.218575
v -0.604417 0.385819 -0.219828
v -0.695516 0.296312 -0.240715
v -0.816190 0.265249 -0.275639
v -0.934103 0.300952 -0.315244
v -1.017662 0.393855 -0.348915
v -1.044476 0.519065 -0.367632
v -1.047011 0.650412 -0.207924
v -0.954849 0.739721 -0.191283
v -0.831273 0.770244 -0.167958
v -0.709394 0.733803 -0.144199
v -0.621871 0.640162 -0.126373
v -0.592154 0.514412 -0.119256
v -0.628207 0.390247 -0.124754
v -0.720368 0.300938 -0.141396
v -0.843945 0.270415 -0.164721
v -0.965823 0.306856 -0.188479
v -1.053347 0.400498 -0.206305
v -1.083064 0.526248 -0.213423
v -1.068746 0.646663 -0.045910
v -0.976002 0.736073 -0.033610
v -0.850834 0.766870 -0.022145
v -0.726782 0.730804 -0.014588
v -0.637085 0.637538 -0.012963
v -0.605777 0.512062 -0.017706
v -0.641248 0.387998 -0.027546
v -0.733992 0.298589 -0.039846
v -0.859160 0.267791 -0.051311
v -0.983212 0.303858 -0.058868
v -1.072909 0.397124 -0.060493
v -1.104217 0.522600 -0.055750
v -1.072195 0.631850 0.116889
v -0.979358 0.721657 0.124827
v -0.853938 0.753538 0.124374
v -0.729541 0.718954 0.115651
v -0.639499 0.627168 0.100996
v -0.607939 0.502777 0.084335
v -0.643317 0.379110 0.070133
v -0.736154 0.289304 0.062195
v -0.861574 0.257422 0.062648
v -0.985971 0.292007 0.071371
v -1.076013 0.383792 0.086026
v -1.107573 0.508183 0.102687
v -1.057298 0.606226 0.277687
v -0.964861 0.696719 0.281317
v -0.840531 0.730477 0.269093
v -0.717624 0.698454 0.244290
v -0.629072 0.609232 0.213555
v -0.598602 0.486716 0.185123
v -0.634379 0.363736 0.166612
v -0.726816 0.273243 0.162983
v -0.851146 0.239485 0.175207
v -0.974053 0.271508 0.200010
v -1.062606 0.360730 0.230745
v -1.093075 0.483246 0.259177
v -1.024311 0.570229 0.433735
v -0.932757 0.661687 0.433183
v -0.810843 0.698080 0.409535
v -0.691234 0.669657 0.369128
v -0.605980 0.584034 0.322788
v -0.577926 0.464153 0.282933
v -0.614586 0.342138 0.260241
v -0.706140 0.250680 0.260793
v -0.828055 0.214287 0.284440
v -0.947663 0.242710 0.324848
v -1.032917 0.328333 0.371187
v -1.060972 0.448213 0.411043
v -0.973797 0.524476 0.582361
v -0.883597 0.617159 0.577827
v -0.765380 0.656901 0.543299
v -0.650823 0.633054 0.488029
v -0.570621 0.552006 0.426827
v -0.546264 0.435475 0.376091
v -0.584278 0.314685 0.349417
v -0.674478 0.222002 0.353951
v -0.792695 0.182260 0.388479
v -0.907252 0.206107 0.443749
v -0.987455 0.287155 0.504951
v -1.011812 0.403686 0.555687
v -0.906621 0.469748 0.721023
v -0.818221 0.563898 0.712774
v -0.704922 0.607646 0.668095
v -0.597082 0.589272 0.598959
v -0.523598 0.513697 0.523890
v -0.504158 0.401172 0.463004
v -0.543973 0.281849 0.432614
v -0.632373 0.187699 0.440864
v -0.745672 0.143950 0.485543
v -0.853512 0.162325 0.554679
v -0.926996 0.237900 0.629747
v -0.946436 0.350424 0.690634
v -0.823933 0.406983 0.847348
v -0.737749 0.502814 0.835714
v -0.630503 0.551158 0.781787
v -0.530932 0.539059 0.700019
v -0.465716 0.469761 0.612318
v -0.452330 0.361831 0.542184
v -0.494360 0.244190 0.508409
v -0.580544 0.148358 0.520043
v -0.687790 0.100015 0.573970
v -0.787361 0.112113 0.655738
v -0.852577 0.181411 0.743439
v -0.865963 0.289341 0.813573
v -0.727147 0.337254 0.959175
v -0.643556 0.434954 0.944544
v -0.543395 0.488402 0.882431
v -0.453503 0.483276 0.789480
v -0.397966 0.420951 0.690596
v -0.391665 0.318126 0.612276
v -0.436288 0.202352 0.575505
v -0.519880 0.104653 0.590136
v -0.620040 0.051205 0.652249
v -0.709932 0.056330 0.745200
v -0.765470 0.118655 0.844083
v -0.771771 0.221481 0.922404
v -0.617920 0.261755 1.054590
v -0.537255 0.361478 1.037402
v -0.445090 0.420452 0.968305
v -0.366121 0.422877 0.865812
v -0.321507 0.368102 0.757387
v -0.323202 0.270803 0.672082
v -0.370752 0.157053 0.632754
v -0.451416 0.057330 0.649942
v -0.543581 -0.001645 0.719039
v -0.622550 -0.004070 0.821532
v -0.667165 0.050706 0.929957
v -0.665470 0.148004 1.015262
v -0.498119 0.181777 1.131960
v -0.420665 0.283643 1.112700
v -0.337270 0.348472 1.037938
v -0.270281 0.358895 0.927708
v -0.237646 0.312117 0.811546
v -0.248111 0.220673 0.720577
v -0.298872 0.109066 0.679176
v -0.376326 0.007200 0.698437
v -0.459721 -0.057629 0.773198
v -0.526710 -0.068052 0.883428
v -0.559345 -0.021274 0.999590
v -0.548880 0.070170 1.090560
v -0.369796 0.454161 1.189963
v -0.295780 0.202781 1.169148
v -0.221780 0.273693 1.090140
v -0.167622 0.292424 0.974110
v -0.147820 0.253955 0.852148
v -0.167679 0.168594 0.756933
v -0.221878 0.059213 0.713978
v -0.295894 -0.044879 0.734793
v -0.369894 -0.115791 0.813800
v -0.424052 -0.134522 0.929830
v -0.443854 -0.096053 1.051793
v -0.423995 0.344780 1.147008
v -0.235145 0.369384 1.227605
v -0.164737 0.120276 1.205781
v -0.100594 0.197394 1.124018
v -0.059902 0.224603 1.004224
v -0.053565 0.194612 0.878497
v -0.083281 0.115457 0.780526
v -0.141087 0.008347 0.736563
v -0.211495 -0.098017 0.758386
v -0.275639 -0.175135 0.840149
v -0.316331 -0.202344 0.959944
v -0.322668 -0.172352 1.085670
v -0.292952 0.262275 1.183641
v -0.096471 -0.071103 1.244242
v -0.029779 0.037539 1.221972
v 0.024213 0.120881 1.138991
v 0.051038 0.156591 1.017533
v 0.043507 0.135101 0.890143
v 0.003640 0.062170 0.790954
v -0.057883 -0.042662 0.746545
v -0.124575 -0.151304 0.768814
v -0.178567 -0.234645 0.851795
v -0.205392 -0.270356 0.973253
v -0.197861 -0.248866 1.100644
v -0.157994 -0.175934 1.199832
v 0.043853 -0.154901 1.239590
v 0.106786 -0.044014 1.217445
v 0.150505 0.045462 1.134804
v 0.163297 0.089552 1.013812
v 0.141734 0.076443 0.886887
v 0.091594 0.009645 0.788038
v 0.026312 -0.092941 0.743754
v -0.036620 -0.203828 0.765898
v -0.080340 -0.293304 0.848539
v -0.093132 -0.337394 0.969532
v -0.071569 -0.324284 1.096457
v -0.021429 -0.257487 1.195305
v 0.183427 -0.236049 1.213728
v 0.242620 -0.122987 1.192276
v 0.276122 -0.027571 1.111529
v 1.371720 0.024634 0.993122
v 1.336200 0.019639 0.868783
v 0.179079 -0.041217 0.771829
v 0.110056 -0.141629 0.728237
v 0.050864 -0.254691 0.749689
v 0.017362 -0.350107 0.830436
v 0.018527 -0.402312 0.948842
v 0.054048 -0.397317 1.073181
v 0.114405 -0.336460 1.170136
v 0.319864 -0.313158 1.167099
v 0.375401 -0.198030 1.146896
v 0.398915 -0.096969 1.069563
v 1.480870 -0.037053 0.955819
v 1.431706 -0.034337 0.836143
v 0.264596 -0.089549 0.742601
v 0.191918 -0.187895 0.700259
v 0.136382 -0.303023 0.720461
v 0.112868 -0.404084 0.797795
v 0.127677 -0.464000 0.911539
v 0.176840 -0.466716 1.031215
v 0.247186 -0.411504 1.124756
v 0.450827 -0.384909 1.100500
v 0.502854 -0.267858 1.082083
v 0.516781 -0.161545 1.009624
v 0.488876 -0.094454 0.902540
v 0.426616 -0.084563 0.789524
v 0.346683 -0.134522 0.700858
v 0.270496 -0.230945 0.660300
v 0.218468 -0.347995 0.678718
v 0.204541 -0.454309 0.751176
v 0.232447 -0.521400 0.858260
v 0.294707 -0.531291 0.971276
v 0.374639 -0.481332 1.059942
v 0.574075 -0.450073 1.015072
v 0.622800 -0.331277 0.998943
v 0.627705 -0.220193 0.932739
v 0.587475 -0.146585 0.834198
v 0.512890 -0.130178 0.729724
v 0.423935 -0.175367 0.647312
v 0.344445 -0.270044 0.609043
v 0.295720 -0.388840 0.625172
v 0.290816 -0.499925 0.691377
v 0.331046 -0.573532 0.789918
v 0.405631 -0.589939 0.894391
v 0.494586 -0.544750 0.976803
v 0.687502 -0.507537 0.912276
v 0.733188 -0.387201 0.898902
v 0.729789 -0.271910 0.840222
v 0.678216 -0.192557 0.751961
v 0.592288 -0.170403 0.657767
v 0.495030 -0.211385 0.582880
v 0.412501 -0.304522 0.547365
v 0.366815 -0.424858 0.560740
v 0.370214 -0.540149 0.619419
v 0.421787 -0.619503 0.707681
v 0.507715 -0.641657 0.801874
v 0.604973 -0.600675 0.876762
v 0.789166 -0.556317 0.793869
v 0.832127 -0.434674 0.783668
v 0.821286 -0.315812 0.733656
v 0.759547 -0.231581 0.657236
v 0.663453 -0.204549 0.574883
v 0.558752 -0.241960 0.508663
v 0.473499 -0.333790 0.476322
v 0.430538 -0.455434 0.486523
v 0.441379 -0.574295 0.536535
v 0.503118 -0.658527 0.612956
v 0.599212 -0.685559 0.695309
v 0.703913 -0.648148 0.761528
v 0.877326 -0.595578 0.661881
v 0.917925 -0.472883 0.655216
v 0.900630 -0.351147 0.614866
v 0.830075 -0.262990 0.551645
v 0.725165 -0.232032 0.482490
v 0.614011 -0.266569 0.425933
v 0.526395 -0.357347 0.397128
v 0.485796 -0.480042 0.403793
v 0.503091 -0.601778 0.444143
v 0.573646 -0.689936 0.507364
v 0.678556 -0.720894 0.576519
v 0.789711 -0.686357 0.633076
v 0.950475 -0.624649 0.518567
v 0.989114 -0.501175 0.515742
v 0.966464 -0.377311 0.485884
v 0.888594 -0.286246 0.436994
v 0.776369 -0.252381 0.382171
v 0.659860 -0.284790 0.336105
v 0.570285 -0.374789 0.311140
v 0.531645 -0.498263 0.313965
v 0.554295 -0.622128 0.343823
v 0.632165 -0.713192 0.392713
v 0.744390 -0.747057 0.447536
v 0.860899 -0.714648 0.493602
v 1.007361 -0.643032 0.366379
v 1.044476 -0.519065 0.367632
v 1.017662 -0.393855 0.348915
v 0.934103 -0.300952 0.315243
v 0.816190 -0.265249 0.275639
v 0.695516 -0.296312 0.240715
v 0.604417 -0.385819 0.219828
v 0.567302 -0.509786 0.218575
v 0.594116 -0.634995 0.237292
v 0.677674 -0.727899 0.270963
v 0.795588 -0.763602 0.310567
v 0.916262 -0.732538 0.345492
v 1.047011 -0.650412 0.207924
v 1.083064 -0.526248 0.213423
v 1.053347 -0.400498 0.206305
v 0.965823 -0.306856 0.188479
v 0.843945 -0.270415 0.164721
v 0.720369 -0.300938 0.141396
v 0.628207 -0.390247 0.124754
v 0.592154 -0.514412 0.119256
v 0.621871 -0.640162 0.126373
v 0.709394 -0.733803 0.144199
v 0.831273 -0.770244 0.167958
v 0.954849 -0.739721 0.191282
v 1.068746 -0.646664 0.045911
v 1.104217 -0.349106 0.055751
v 1.072909 -0.397124 0.060494
v 0.983212 -0.303858 0.058869
v 0.859159 -0.267791 0.051311
v 0.733992 -0.298589 0.039847
v 0.641248 -0.387998 0.027546
v 0.605777 -0.512062 0.017707
v 0.637085 -0.637538 0.012964
v 0.726782 -0.730804 0.014588
v 0.850834 -0.766870 0.022146
v 0.976002 -0.736073 0.033611
v 1.072195 -0.458357 -0.116888
v 1.107573 -0.334690 -0.102686
v 1.076013 -0.383792 -0.086025
v 0.985971 -0.292007 -0.071370
v 0.861574 -0.257422 -0.062648
v 0.736154 -0.289304 -0.062195
v 0.643317 -0.379110 -0.070133
v 0.607939 -0.502777 -0.084335
v 0.639499 -0.627169 -0.100995
v 0.729541 -0.718954 -0.115650
v 0.853938 -0.753539 -0.124373
v 0.979358 -0.721657 -0.124826
v 1.057298 -0.606226 -0.277688
v 1.093075 -0.483246 -0.259177
v 1.062606 -0.360730 -0.230745
v 0.974053 -0.271508 -0.200010
v 0.851146 -0.239485 -0.175207
v 0.726816 -0.273243 -0.162983
v 0.634379 -0.363736 -0.166613
v 0.598602 -0.486716 -0.185123
v 0.629072 -0.609232 -0.213555
v 0.717624 -0.698454 -0.244290
v 0.840531 -0.730477 -0.269093
v 0.964861 -0.696719 -0.281317
v 1.024311 -0.570229 -0.433735
v 1.060972 -0.448213 -0.411043
v 1.032917 -0.328333 -0.371188
v 0.947663 -0.242710 -0.324848
v 0.828055 -0.214287 -0.284441
v 0.706140 -0.250680 -0.260793
v 0.614586 -0.342138 -0.260241
v 0.577925 -0.464153 -0.282933
v 0.605980 -0.584034 -0.322788
v 0.691234 -0.669657 -0.369128
v 0.810843 -0.698080 -0.409535
v 0.932757 -0.661687 -0.433183
v 0.973797 -0.524476 -0.582361
v 1.011812 -0.403686 -0.555687
v 0.987455 -0.287155 -0.504951
v 0.907252 -0.206107 -0.443749
v 0.792695 -0.182260 -0.388479
v 0.674478 -0.222002 -0.353951
v 0.584278 -0.314685 -0.349417
v 0.546264 -0.435475 -0.376091
v 0.570621 -0.552006 -0.426826
v 0.650823 -0.633054 -0.488029
v 0.765380 -0.656901 -0.543299
v 0.883597 -0.617159 -0.577827
v 0.906621 -0.469748 -0.721024
v 0.946436 -0.350424 -0.690634
v 0.926996 -0.237900 -0.629747
v 0.853512 -0.162325 -0.554679
v 0.745672 -0.143950 -0.485543
v 0.632373 -0.187699 -0.440864
v 0.543973 -0.281849 -0.432614
v 0.504158 -0.401172 -0.463004
v 0.523598 -0.513697 -0.523890
v 0.597082 -0.589271 -0.598959
v 0.704922 -0.607646 -0.668095
v 0.818221 -0.563897 -0.712774
v 0.823933 -0.406983 -0.847348
v 0.865963 -0.289341 -0.813574
v 0.852577 -0.181411 -0.743440
v 0.787361 -0.112113 -0.655739
v 0.687790 -0.100015 -0.573970
v 0.580544 -0.148358 -0.520044
v 0.494360 -0.244190 -0.508409
v 0.452330 -0.361831 -0.542184
v 0.465716 -0.469761 -0.612318
v 0.530932 -0.539059 -0.700019
v 0.630503 -0.551158 -0.781787
v 0.737749 -0.502814 -0.835714
vn 0.6534 -0.0114 -0.7570
vn 0.7439 0.4332 -0.5089
vn 0.6351 0.7624 -0.1238
vn 0.3555 0.8869 0.2949
vn -0.0194 0.7731 0.6340
vn -0.3884 0.4525 0.8027
vn -0.6534 0.0114 0.7570
vn -0.7439 -0.4332 0.5089
vn -0.6351 -0.7624 0.1238
vn -0.3555 -0.8870 -0.2949
vn 0.0194 -0.7731 -0.6340
vn 0.3884 -0.4525 -0.8027
vn 0.5647 0.0488 -0.8239
vn 0.6789 0.4773 -0.5579
vn 0.6113 0.7786 -0.1418
vn 0.3793 0.8708 0.3128
vn 0.0456 0.7290 0.6830
vn -0.2997 0.3923 0.8696
vn -0.5647 -0.0488 0.8239
vn -0.6789 -0.4773 0.5579
vn -0.6113 -0.7786 0.1418
vn -0.3793 -0.8708 -0.3128
vn -0.0456 -0.7290 -0.6830
vn 0.2997 -0.3923 -0.8696
vn 0.4686 0.1120 -0.8763
vn 0.6085 0.5236 -0.5963
vn 0.1144 -0.9100 0.3986
vn 0.0797 -0.9958 -0.0457
vn 0.1160 0.6827 0.7214
vn -0.2036 0.3292 0.9221
vn -0.4686 -0.1120 0.8763
vn -0.6085 -0.5236 0.5963
vn -0.5855 -0.7955 0.1559
vn -0.4051 -0.8538 -0.3269
vn -0.1160 -0.6827 -0.7214
vn 0.2036 -0.3292 -0.9221
vn 0.3667 0.1770 -0.9133
vn 0.5339 0.5712 -0.6234
vn 0.1618 -0.1743 -0.9713
vn 0.4324 0.8364 0.3369
vn 0.0430 0.4616 0.8860
vn -0.1018 0.2642 0.9591
vn -0.3667 -0.1770 0.9133
vn -0.5339 -0.5712 0.6234
vn -0.5582 -0.8130 0.1658
vn -0.4324 -0.8364 -0.3369
vn -0.1906 -0.6351 -0.7485
vn 0.1018 -0.2642 -0.9591
vn 0.2609 0.2427 -0.9344
vn 0.4564 0.6194 -0.6388
vn 0.0682 0.7862 -0.6142
vn 0.0692 0.9675 0.2432
vn 0.0273 0.5686 0.8221
vn 0.0041 0.1984 0.9801
vn -0.2609 -0.2427 0.9344
vn -0.4564 -0.6194 0.6388
vn -0.5298 -0.8306 0.1714
vn -0.4608 -0.8187 -0.3425
vn -0.2682 -0.5869 -0.7639
vn -0.0041 -0.1984 -0.9801
vn 0.1528 0.3081 -0.9390
vn 0.3772 0.6673 -0.6422
vn 0.5008 0.8482 -0.1727
vn 0.4898 0.8012 0.3437
vn 0.3473 0.5390 0.7673
vn 0.1121 0.1330 0.9848
vn -0.1528 -0.3081 0.9390
vn -0.3772 -0.6673 0.6422
vn -0.5008 -0.8482 0.1727
vn -0.4898 -0.8012 -0.3437
vn -0.3473 -0.5390 -0.7673
vn -0.1121 -0.1330 -0.9848
vn 0.0445 0.3720 -0.9272
vn 0.2978 0.7141 -0.6336
vn 0.4717 0.8653 -0.1695
vn 0.5189 0.7840 0.3406
vn 0.4267 0.4922 0.7587
vn 0.2205 0.0692 0.9729
vn -0.0445 -0.3720 0.9272
vn -0.2978 -0.7141 0.6336
vn -0.4717 -0.8653 0.1695
vn -0.5189 -0.7840 -0.3406
vn -0.4267 -0.4922 -0.7587
vn -0.2205 -0.0692 -0.9729
vn -0.0624 0.4332 -0.8991
vn 0.2194 0.7590 -0.6130
vn 0.4430 0.8818 -0.1620
vn 0.5476 0.7676 0.3330
vn 0.5051 0.4473 0.7381
vn 0.3274 0.0079 0.9449
vn 0.0624 -0.4332 0.8991
vn -0.2194 -0.7590 0.6130
vn -0.4430 -0.8818 0.1620
vn -0.5476 -0.7676 -0.3330
vn -0.5051 -0.4473 -0.7381
vn -0.3274 -0.0079 -0.9449
vn -0.1660 0.4909 -0.8553
vn 0.1436 0.8012 -0.5809
vn 0.4152 0.8972 -0.1502
vn 0.5754 0.7521 0.3213
vn 0.5809 0.4051 0.7060
vn 0.4309 -0.0498 0.9010
vn 0.1660 -0.4909 0.8553
vn -0.1436 -0.8012 0.5809
vn -0.4152 -0.8972 0.1502
vn -0.5754 -0.7521 -0.3213
vn -0.5809 -0.4051 -0.7060
vn -0.4309 0.0498 -0.9010
vn -0.2644 0.5439 -0.7964
vn 0.0714 0.8401 -0.5377
vn 0.3888 0.9115 -0.1344
vn 0.6019 0.7379 0.3055
vn 0.6531 0.3662 0.6629
vn 0.5294 -0.1028 0.8421
vn 0.2644 -0.5439 0.7964
vn -0.0714 -0.8401 0.5377
vn -0.3888 -0.9115 0.1344
vn -0.6019 -0.7379 -0.3055
vn -0.6531 -0.3662 -0.6629
vn -0.5294 0.1028 -0.8421
vn -0.3561 0.5914 -0.7235
vn 0.0043 0.8749 -0.4843
vn 0.3642 0.9242 -0.1148
vn 0.6265 0.7251 0.2859
vn 0.7202 0.3314 0.6094
vn 0.6210 -0.1503 0.7692
vn 0.3561 -0.5914 0.7235
vn -0.0043 -0.8749 0.4843
vn -0.3642 -0.9242 0.1148
vn -0.6265 -0.7251 -0.2859
vn -0.7202 -0.3314 -0.6094
vn -0.6210 0.1503 -0.7692
vn -0.4394 0.6325 -0.6378
vn -0.0568 0.9050 -0.4216
vn 0.3418 0.9353 -0.0918
vn 0.6488 0.7141 0.2629
vn 0.7813 0.3013 0.5467
vn 0.7043 -0.1914 0.6836
vn 0.4394 -0.6325 0.6378
vn 0.0568 -0.9050 0.4216
vn -0.3418 -0.9353 0.0918
vn -0.6488 -0.7141 -0.2629
vn -0.7813 -0.3013 -0.5467
vn -0.7043 0.1914 -0.6836
vn -0.5129 0.6666 -0.5409
vn -0.1106 0.9300 -0.3505
vn 0.3221 0.9444 -0.0658
vn 0.6686 0.7049 0.2369
vn 0.8351 0.2763 0.4756
vn 0.7778 -0.2255 0.5866
vn 0.5129 -0.6666 0.5409
vn 0.1106 -0.9300 0.3505
vn -0.3221 -0.9444 0.0658
vn -0.6686 -0.7049 -0.2369
vn -0.8351 -0.2763 -0.4756
vn -0.7778 0.2255 -0.5866
vn 0.7315 -0.6746 -0.0991
vn -0.1564 0.9494 -0.2724
vn 0.3053 0.9515 -0.0372
vn 0.6853 0.6978 0.2082
vn 0.8809 0.2569 0.3975
vn 0.8403 -0.2520 0.4800
vn 0.5754 -0.6931 0.4343
vn 0.1564 -0.9494 0.2724
vn -0.3053 -0.9515 0.0372
vn -0.6853 -0.6978 -0.2082
vn -0.8809 -0.2569 -0.3975
vn 0.9419 -0.3176 -0.1094
vn -0.6257 0.7115 -0.3198
vn 0.1663 0.9844 -0.0567
vn 0.2918 0.9565 -0.0065
vn 0.6988 0.6929 0.1775
vn 0.9178 0.2434 0.3137
vn 0.8907 -0.2704 0.3656
vn 0.6257 -0.7115 0.3198
vn 0.1933 -0.9629 0.1886
vn -0.2918 -0.9565 0.0065
vn -0.6988 -0.6929 -0.1775
vn -0.9178 -0.2434 -0.3137
vn -0.6203 -0.7720 -0.1386
vn -0.6967 0.7166 -0.0324
vn -0.1578 0.9874 -0.0130
vn 0.2817 0.9591 0.0258
vn 0.7089 0.6902 0.1452
vn 0.9452 0.2361 0.2255
vn 0.9280 -0.2803 0.2453
vn 0.6631 -0.7215 0.1995
vn 0.2207 -0.9702 0.1004
vn -0.2817 -0.9591 -0.0258
vn -0.7089 -0.6902 -0.1452
vn -0.9452 -0.2361 -0.2255
vn -0.9988 0.0284 -0.0392
vn -0.6869 0.7229 -0.0754
vn -0.2381 0.9712 -0.0095
vn 0.2754 0.9595 0.0591
vn 0.7153 0.6898 0.1119
vn 0.9626 0.2351 0.1346
vn 0.9518 -0.2817 0.1212
vn 0.6869 -0.7229 0.0754
vn 0.2381 -0.9712 0.0095
vn -0.2754 -0.9595 -0.0591
vn -0.7153 -0.6898 -0.1119
vn -0.9626 -0.2351 -0.1346
vn -0.9518 0.2817 -0.1212
vn -0.6966 0.7157 0.0504
vn -0.2452 0.9659 0.0827
vn 0.2727 0.9576 0.0929
vn 0.7179 0.6918 0.0782
vn 0.9698 0.2404 0.0424
vn 0.9616 -0.2745 -0.0046
vn 0.6966 -0.7157 -0.0504
vn 0.2452 -0.9659 -0.0827
vn -0.2727 -0.9576 -0.0929
vn -0.7179 -0.6918 -0.0782
vn -0.9698 -0.2404 -0.0424
vn -0.9616 0.2745 0.0046
vn -0.8458 0.4850 0.2222
vn -0.4883 0.8537 0.1813
vn -0.8536 0.4963 0.1582
vn -0.4807 0.8443 0.2368
vn 0.0072 0.9876 0.1567
vn 0.0121 0.9819 0.1891
vn 0.5036 0.8592 0.0903
vn 0.5037 0.8591 0.0909
vn 0.8668 0.4986 -0.0008
vn 0.9833 0.1029 -0.1504
vn 0.9665 0.2518 -0.0494
vn 0.9571 -0.2589 -0.1299
vn 0.6922 -0.7000 -0.1757
vn 0.2420 -0.9545 -0.1745
vn -0.2739 -0.9534 -0.1265
vn -0.5219 -0.8486 -0.0862
vn -0.5220 -0.8485 -0.0868
vn -0.8758 -0.4826 0.0042
vn -0.9888 -0.0017 0.1491
vn -0.9956 0.0090 0.0937
vn -0.8194 0.4562 0.3470
vn -0.4578 0.8193 0.3453
vn 0.5040 0.8588 0.0923
vn 0.8625 0.5050 -0.0322
vn 0.8496 0.5191 -0.0936
vn 0.9663 0.0372 -0.2549
vn 0.8344 -0.4716 -0.2852
vn 0.8194 -0.4562 -0.3470
vn 0.4623 -0.8376 -0.2910
vn 0.4486 -0.8248 -0.3442
vn -0.1194 -0.9750 -0.1872
vn -0.5217 -0.8489 -0.0848
vn -0.8714 -0.4891 0.0366
vn -0.9659 -0.0267 0.2575
vn -0.4227 0.7875 0.4486
vn 0.0255 0.9672 0.2526
vn 0.0460 0.9487 0.3130
vn 0.5044 0.8584 0.0936
vn 0.9314 0.0688 -0.3575
vn 0.7790 -0.4196 -0.4659
vn 0.4137 -0.7932 -0.4469
vn -0.0435 -0.9678 -0.2478
vn -0.0634 -0.9498 -0.3062
vn -0.5212 -0.8493 -0.0835
vn -0.8580 -0.5038 0.1000
vn -0.9308 -0.0585 0.3608
vn -0.7253 0.3758 0.5768
vn -0.7790 0.4196 0.4659
vn -0.3760 0.7495 0.5449
vn 0.0733 0.9264 0.3693
vn 0.8033 0.5587 -0.2066
vn 0.8297 0.5371 -0.1520
vn 0.8850 0.1066 -0.4533
vn 0.7253 -0.3758 -0.5768
vn 0.3673 -0.7554 -0.5427
vn -0.0898 -0.9283 -0.3608
vn -0.5207 -0.8498 -0.0823
vn -0.8375 -0.5224 0.1604
vn -0.8102 -0.5446 0.2167
vn -0.8841 -0.0966 0.4572
vn -0.6591 0.3256 0.6779
vn -0.3185 0.7058 0.6327
vn 0.1069 0.9009 0.4206
vn 0.5050 0.8579 0.0948
vn 0.5057 0.8574 0.0959
vn 0.7707 0.5833 -0.2563
vn 0.8279 0.1499 -0.5405
vn 0.6591 -0.3256 -0.6779
vn -0.1223 -0.9036 -0.4105
vn -0.5199 -0.8503 -0.0813
vn -0.7766 -0.5701 0.2681
vn -0.8266 -0.1402 0.5450
vn -0.2513 0.6574 0.7104
vn 0.1462 0.8726 0.4661
vn 0.5066 0.8568 0.0968
vn 0.7326 0.6108 -0.3003
vn 0.7610 0.1981 -0.6177
vn 0.2433 -0.6639 -0.7071
vn 0.3102 -0.7121 -0.6299
vn -0.1604 -0.8762 -0.4545
vn -0.5191 -0.8509 -0.0803
vn -0.7373 -0.5984 0.3135
vn -0.7594 -0.1886 0.6227
vn -0.5817 0.2698 0.7673
vn -0.1753 0.6049 0.7767
vn 0.1906 0.8419 0.5049
vn 0.5075 0.8561 0.0976
vn 0.6897 0.6405 -0.3378
vn 0.6856 0.2502 -0.6836
vn 0.5817 -0.2698 -0.7673
vn 0.4943 -0.2094 -0.8437
vn 0.1679 -0.6118 -0.7730
vn -0.5182 -0.8516 -0.0795
vn -0.6929 -0.6291 0.3523
vn -0.4943 0.2094 0.8437
vn -0.2583 0.9475 0.1883
vn 0.2393 0.8094 0.5363
vn 0.5085 0.8554 0.0983
vn 0.6425 0.6720 -0.3683
vn 0.6029 0.3054 -0.7371
vn 0.0852 -0.5565 -0.8265
vn -0.2034 -0.8465 -0.4921
vn -0.2506 -0.8150 -0.5225
vn -0.5171 -0.8523 -0.0788
vn -0.6442 -0.6616 0.3837
vn -0.6835 -0.2411 0.6890
vn -0.4049 -0.3157 0.8581
vn -0.0020 0.9698 0.2439
vn 0.4088 -0.1958 0.8914
vn 0.2915 0.7756 0.5599
vn 0.5920 0.7046 -0.3911
vn 0.5142 0.3628 -0.7771
vn 0.3985 -0.1454 -0.9056
vn 0.2958 -0.0790 -0.9520
vn -0.0035 -0.4991 -0.8665
vn -0.5160 -0.8530 -0.0783
vn -0.5249 -0.5988 0.6050
vn 0.4900 -0.5032 0.7118
vn 0.0043 0.9854 0.1703
vn 0.5490 0.8156 -0.1829
vn 0.5156 0.8195 -0.2502
vn 0.3462 0.7412 0.5752
vn 0.5096 0.8547 0.0988
vn 0.5108 0.8540 0.0991
vn 0.4212 0.4214 -0.8031
vn 0.1881 -0.0111 -0.9821
vn -0.0965 -0.4406 -0.8925
vn -0.3010 -0.7823 -0.5453
vn -0.3540 -0.7490 -0.5601
vn -0.5149 -0.8537 -0.0780
vn -0.4166 -0.1525 0.8962
vn 0.2598 0.3610 0.8957
vn 0.4026 0.7066 0.5819
vn 0.5120 0.8532 0.0993
vn 0.5391 0.7380 -0.4059
vn 0.3255 0.4801 -0.8146
vn 0.0772 0.0569 -0.9954
vn -0.1922 -0.3819 -0.9040
vn -0.4086 -0.7155 -0.5667
vn -0.4810 -0.7644 0.4294
vn -0.5705 -0.5956 0.5656
vn -0.3992 -0.3936 0.8281
vn -0.1577 -0.0735 0.9847
vn 0.0351 -0.1239 0.9917
vn 0.4596 0.6726 0.5800
vn 0.3514 0.9188 0.1795
vn 0.4845 0.7715 -0.4125
vn 0.2748 0.8493 -0.4507
vn 0.2286 0.5380 -0.8114
vn -0.2891 -0.3240 -0.9008
vn -0.4638 -0.6825 -0.5648
vn -0.5137 -0.8545 -0.0778
vn -0.4239 -0.7985 0.4275
vn -0.2236 -0.5307 0.8176
vn 0.1467 -0.1888 0.9710
vn 0.2845 0.3154 0.9053
vn 0.3351 0.5360 0.7749
vn 0.1684 0.8727 -0.4584
vn 0.0478 0.5556 -0.8300
vn -0.0351 0.1239 -0.9917
vn -0.1467 0.1888 -0.9710
vn -0.3855 -0.2680 -0.8829
vn -0.5187 -0.6506 -0.5547
vn -0.5125 -0.8552 -0.0779
vn -0.5112 -0.8559 -0.0781
vn -0.3672 -0.8314 0.4170
vn 0.2559 -0.2505 0.9337
vn 0.3815 0.2590 0.8873
vn 0.3776 0.0234 0.9257
vn 0.3463 0.6045 0.7174
vn 0.6794 -0.1660 -0.7147
vn -0.0384 0.5355 -0.8437
vn -0.2559 0.2505 -0.9337
vn -0.5724 -0.6203 -0.5363
vn -0.5101 -0.8565 -0.0785
vn -0.3118 -0.8628 0.3980
vn -0.1266 -0.5871 0.7996
vn -0.0318 -0.6406 0.7672
vn 0.3607 -0.3079 0.8804
vn 0.4764 0.2054 0.8549
vn 0.5674 0.1555 0.8086
vn 0.6585 -0.0756 0.7488
vn 0.9408 -0.1843 0.2843
vn 0.8876 -0.3185 -0.3328
vn -0.0776 0.6382 -0.7659
vn -0.3607 0.3079 -0.8804
vn -0.4798 -0.2147 -0.8507
vn -0.5702 -0.1652 -0.8047
vn -0.6239 -0.5920 -0.5101
vn -0.2585 -0.8919 0.3710
vn 0.0592 -0.6905 0.7209
vn 0.4593 -0.3601 0.8121
vn 0.6530 0.1102 0.7493
vn 0.6751 0.5526 0.4888
vn 0.5178 0.8500 0.0973
vn 0.9498 -0.3042 -0.0726
vn 0.2207 0.9206 -0.3223
vn -0.1376 0.7418 -0.6563
vn -0.4593 0.3601 -0.8121
vn -0.6553 -0.1201 -0.7457
vn -0.6724 -0.5664 -0.4765
vn -0.5089 -0.8572 -0.0791
vn -0.5079 -0.8577 -0.0798
vn 0.1449 -0.7358 0.6615
vn 0.5500 -0.4060 0.7298
vn 0.7212 0.5292 0.4470
vn 0.5188 0.8495 0.0964
vn -0.2160 0.7815 -0.5853
vn -0.5500 0.4060 -0.7298
vn -0.7337 -0.0805 -0.6747
vn -0.7170 -0.5438 -0.4361
vn -0.1624 -0.9418 0.2945
vn -0.2085 -0.9184 0.3362
vn 0.2237 -0.7757 0.5901
vn 0.8025 0.0364 0.5956
vn 0.7318 0.0703 0.6778
vn 0.5196 0.8490 0.0954
vn 0.1760 0.9432 -0.2818
vn 0.1360 0.9624 -0.2353
vn -0.6313 0.4451 -0.6351
vn -0.8039 -0.0468 -0.5930
vn -0.7570 -0.5246 -0.3895
vn -0.5069 -0.8582 -0.0807
vn -0.1210 -0.9616 0.2463
vn 0.2944 -0.8096 0.5078
vn 0.6313 -0.4451 0.6351
vn 0.8638 0.0091 0.5038
vn 0.7983 0.4935 0.3453
vn 0.7625 0.5094 0.3989
vn 0.5204 0.8487 0.0943
vn -0.3470 0.8423 -0.4124
vn -0.2862 0.8152 -0.5036
vn -0.7019 0.4765 -0.5295
vn -0.7917 -0.5091 -0.3375
vn -0.5053 -0.8590 -0.0828
vn -0.5060 -0.8586 -0.0817
vn 0.3556 -0.8369 0.4161
vn 0.7604 -0.4997 0.4149
vn 0.7019 -0.4765 0.5295
vn 0.9146 -0.0111 0.4042
vn 0.8280 0.4817 0.2870
vn 0.5210 0.8485 0.0930
vn 0.1013 0.9778 -0.1833
vn 0.0726 0.9893 -0.1269
vn -0.3976 0.8624 -0.3134
vn -0.9153 0.0004 -0.4028
vn -0.8648 -0.0197 -0.5018
vn -0.8205 -0.4977 -0.2811
vn -0.5046 -0.8592 -0.0841
vn -0.0852 -0.9776 0.1927
vn -0.0555 -0.9894 0.1345
vn 0.4065 -0.8571 0.3165
vn 0.7848 -0.5082 0.3547
vn 0.8408 0.4765 0.2567
vn 0.0597 0.9934 -0.0977
vn -0.4195 0.8692 -0.2618
vn -0.7604 0.4997 -0.4149
vn -0.7848 0.5082 -0.3547
vn -0.8329 -0.4928 -0.2518
vn -0.5043 -0.8593 -0.0847
vn -0.0422 -0.9937 0.1043
vn -0.2207 0.9702 -0.1004
vn -0.6631 0.7215 -0.1995
vn -0.9280 0.2803 -0.2453
vn 0.8944 0.2330 0.3817
vn 0.9873 -0.1140 -0.1110
vn -0.8358 0.5481 0.0322
vn 0.9402 -0.2896 0.1792
vn -0.8412 0.4289 -0.3293
vn 0.7167 0.6960 0.0445
vn 0.2739 0.9534 0.1265
vn -0.2420 0.9545 0.1745
vn -0.6922 0.7000 0.1757
vn -0.9571 0.2589 0.1299
vn -0.9665 -0.2518 0.0494
vn -0.7167 -0.6960 -0.0445
vn 0.9353 -0.3256 -0.1385
vn 0.9386 -0.2350 -0.2526
vn 0.9529 0.2693 -0.1393
vn 0.7117 0.7024 0.0116
vn 0.2789 0.9470 0.1595
vn -0.2284 0.9370 0.2644
vn -0.6736 0.6761 0.2984
vn -0.9386 0.2350 0.2526
vn -0.9529 -0.2693 0.1393
vn -0.7117 -0.7024 -0.0116
vn -0.2789 -0.9470 -0.1595
vn 0.2284 -0.9370 -0.2644
vn 0.6736 -0.6761 -0.2984
vn 0.9062 -0.2034 -0.3706
vn 0.9292 0.2925 -0.2258
vn 0.7030 0.7109 -0.0201
vn 0.2876 0.9385 0.1912
vn -0.2047 0.9138 0.3509
vn -0.6413 0.6445 0.4164
vn -0.9062 0.2034 0.3706
vn -0.9292 -0.2925 0.2258
vn -0.7030 -0.7109 0.0201
vn -0.2876 -0.9385 -0.1912
vn 0.2047 -0.9138 -0.3509
vn 0.6413 -0.6445 -0.4164
vn 0.8607 -0.1645 -0.4819
vn 0.8958 0.3210 -0.3073
vn 0.6908 0.7213 -0.0500
vn 0.2998 0.9280 0.2210
vn -0.1713 0.8853 0.4324
vn -0.5957 0.6056 0.5276
vn -0.8607 0.1645 0.4819
vn -0.8958 -0.3210 0.3073
vn -0.6908 -0.7213 0.0500
vn -0.2998 -0.9280 -0.2210
vn 0.1713 -0.8853 -0.4324
vn 0.5957 -0.6056 -0.5276
vn 0.8026 -0.1190 -0.5845
vn 0.8533 0.3544 -0.3825
vn 0.6752 0.7335 -0.0775
vn 0.3154 0.9158 0.2486
vn -0.1288 0.8519 0.5076
vn -0.5377 0.5601 0.6302
vn -0.8026 0.1190 0.5845
vn -0.8533 -0.3544 0.3825
vn -0.6752 -0.7335 0.0775
vn -0.3154 -0.9158 -0.2486
vn 0.1288 -0.8519 -0.5076
vn 0.5377 -0.5601 -0.6302
vn 0.7331 -0.0676 -0.6767
vn 0.8024 0.3920 -0.4501
vn 0.6566 0.7473 -0.1023
vn 0.3341 0.9020 0.2733
vn -0.0779 0.8143 0.5752
vn -0.4682 0.5088 0.7225
vn -0.7331 0.0676 0.6767
vn -0.8024 -0.3920 0.4501
vn -0.6566 -0.7473 0.1023
vn -0.3341 -0.9020 -0.2733
vn 0.0779 -0.8143 -0.5752
vn 0.4682 -0.5088 -0.7225
vn 0.4686 0.1119 -0.8763
vn 0.1624 -0.3837 -0.9090
vn 0.0872 -0.9891 -0.1190
vn 0.0839 -0.9961 0.0273
vn 0.5298 0.8306 -0.1714
vn 0.0599 0.9540 0.2937
vn 0.2682 0.5869 0.7639
vn -0.6210 0.1503 -0.7693
vn 0.7191 -0.6875 -0.1016
vn 0.9245 -0.3661 -0.1060
vn -0.5910 -0.7944 -0.1405
vn -0.6926 0.7206 -0.0315
vn 0.9358 -0.0193 0.3521
vn 0.5213 0.8484 0.0924
vn -0.9363 0.0086 -0.3510
vn 0.4284 -0.8640 0.2645
vn 0.9930 -0.1184 0.0002
vn -0.8380 0.5365 -0.1000
vn 0.8923 -0.3045 -0.3334
vn 0.9324 -0.3013 0.1996
vn 0.5883 -0.6217 0.5172
vn 0.6736 -0.6762 -0.2984
vt 0.520833 0.500000
vt 0.500000 0.583333
vt 0.500000 0.500000
vt 0.520833 0.666667
vt 0.500000 0.666667
vt 0.520833 0.750000
vt 0.500000 0.750000
vt 0.500000 0.833333
vt 0.520833 0.833333
vt 0.500000 0.916667
vt 0.520833 0.916667
vt 0.500000 1.000000
vt 0.520833 0.000000
vt 0.500000 0.083333
vt 0.500000 0.000000
vt 0.520833 0.083333
vt 0.500000 0.166667
vt 0.520833 0.250000
vt 0.500000 0.250000
vt 0.500000 0.333333
vt 0.520833 0.416667
vt 0.500000 0.416667
vt 0.541667 0.500000
vt 0.520833 0.583333
vt 0.541667 0.583333
vt 0.541667 0.666667
vt 0.541667 0.750000
vt 0.541667 0.833333
vt 0.541667 0.916667
vt 0.520833 1.000000
vt 0.541667 0.083333
vt 0.520833 0.166667
vt 0.541667 0.166667
vt 0.541667 0.250000
vt 0.520833 0.333333
vt 0.541667 0.333333
vt 0.562500 0.500000
vt 0.562500 0.583333
vt 0.562500 0.750000
vt 0.562500 0.833333
vt 0.562500 0.916667
vt 0.541667 1.000000
vt 0.562500 0.000000
vt 0.541667 0.000000
vt 0.562500 0.083333
vt 0.562500 0.166667
vt 0.562500 0.250000
vt 0.562500 0.333333
vt 0.541667 0.416667
vt 0.562500 0.416667
vt 0.583333 0.500000
vt 0.583333 0.583333
vt 0.562500 0.666667
vt 0.583333 0.750000
vt 0.583333 0.833333
vt 0.583333 0.916667
vt 0.562500 1.000000
vt 0.583333 0.000000
vt 0.583333 0.083333
vt 0.583333 0.166667
vt 0.583333 0.333333
vt 0.583333 0.416667
vt 0.604167 0.500000
vt 0.604167 0.583333
vt 0.583333 0.666667
vt 0.604167 0.750000
vt 0.604167 0.833333
vt 0.604167 0.916667
vt 0.583333 1.000000
vt 0.604167 0.083333
vt 0.604167 0.166667
vt 0.583333 0.250000
vt 0.604167 0.250000
vt 0.604167 0.333333
vt 0.604167 0.416667
vt 0.625000 0.500000
vt 0.625000 0.666667
vt 0.604167 0.666667
vt 0.625000 0.750000
vt 0.625000 0.833333
vt 0.625000 0.916667
vt 0.604167 1.000000
vt 0.604167 0.000000
vt 0.625000 0.083333
vt 0.625000 0.250000
vt 0.625000 0.333333
vt 0.645833 0.583333
vt 0.625000 0.583333
vt 0.645833 0.666667
vt 0.645833 0.750000
vt 0.645833 0.833333
vt 0.645833 0.916667
vt 0.625000 1.000000
vt 0.625000 0.000000
vt 0.645833 0.083333
vt 0.625000 0.166667
vt 0.645833 0.166667
vt 0.645833 0.250000
vt 0.645833 0.333333
vt 0.625000 0.416667
vt 0.645833 0.416667
vt 0.645833 0.500000
vt 0.666667 0.583333
vt 0.666667 0.666667
vt 0.666667 0.750000
vt 0.666667 0.833333
vt 0.666667 0.916667
vt 0.645833 1.000000
vt 0.666667 0.000000
vt 0.645833 0.000000
vt 0.666667 0.083333
vt 0.666667 0.166667
vt 0.666667 0.250000
vt 0.666667 0.333333
vt 0.666667 0.416667
vt 0.687500 0.500000
vt 0.666667 0.500000
vt 0.687500 0.583333
vt 0.687500 0.666667
vt 0.687500 0.750000
vt 0.687500 0.833333
vt 0.687500 0.916667
vt 0.666667 1.000000
vt 0.687500 0.000000
vt 0.687500 0.166667
vt 0.687500 0.250000
vt 0.687500 0.333333
vt 0.687500 0.416667
vt 0.708333 0.500000
vt 0.708333 0.666667
vt 0.708333 0.750000
vt 0.708333 0.833333
vt 0.708333 0.916667
vt 0.687500 1.000000
vt 0.708333 0.000000
vt 0.687500 0.083333
vt 0.708333 0.083333
vt 0.708333 0.166667
vt 0.708333 0.250000
vt 0.708333 0.333333
vt 0.729167 0.500000
vt 0.708333 0.583333
vt 0.729167 0.583333
vt 0.729167 0.666667
vt 0.729167 0.750000
vt 0.729167 0.833333
vt 0.729167 1.000000
vt 0.708333 1.000000
vt 0.729167 0.000000
vt 0.729167 0.083333
vt 0.729167 0.250000
vt 0.729167 0.333333
vt 0.708333 0.416667
vt 0.729167 0.416667
vt 0.750000 0.583333
vt 0.750000 0.666667
vt 0.750000 0.833333
vt 0.729167 0.916667
vt 0.750000 0.916667
vt 0.750000 0.000000
vt 0.750000 0.083333
vt 0.729167 0.166667
vt 0.750000 0.166667
vt 0.750000 0.333333
vt 0.750000 0.416667
vt 0.750000 0.500000
vt 0.770833 0.583333
vt 0.770833 0.666667
vt 0.750000 0.750000
vt 0.770833 0.833333
vt 0.770833 0.916667
vt 0.750000 1.000000
vt 0.770833 0.000000
vt 0.770833 0.083333
vt 0.770833 0.166667
vt 0.750000 0.250000
vt 0.770833 0.333333
vt 0.770833 0.500000
vt 0.791667 0.583333
vt 0.791667 0.666667
vt 0.770833 0.750000
vt 0.791667 0.833333
vt 0.791667 0.916667
vt 0.770833 1.000000
vt 0.791667 0.083333
vt 0.791667 0.166667
vt 0.770833 0.250000
vt 0.791667 0.250000
vt 0.791667 0.333333
vt 0.770833 0.416667
vt 0.791667 0.500000
vt 0.812500 0.583333
vt 0.812500 0.750000
vt 0.791667 0.750000
vt 0.812500 0.833333
vt 0.812500 0.916667
vt 0.791667 1.000000
vt 0.791667 0.000000
vt 0.812500 0.083333
vt 0.812500 0.166667
vt 0.812500 0.250000
vt 0.812500 0.333333
vt 0.791667 0.416667
vt 0.812500 0.500000
vt 0.833333 0.500000
vt 0.833333 0.583333
vt 0.812500 0.666667
vt 0.833333 0.666667
vt 0.833333 0.750000
vt 0.833333 0.833333
vt 0.833333 0.916667
vt 0.812500 1.000000
vt 0.833333 0.000000
vt 0.812500 0.000000
vt 0.833333 0.166667
vt 0.833333 0.250000
vt 0.833333 0.333333
vt 0.812500 0.416667
vt 0.854167 0.500000
vt 0.854167 0.583333
vt 0.854167 0.666667
vt 0.854167 0.750000
vt 0.854167 0.833333
vt 0.854167 1.000000
vt 0.833333 1.000000
vt 0.854167 0.083333
vt 0.833333 0.083333
vt 0.854167 0.166667
vt 0.854167 0.333333
vt 0.854167 0.416667
vt 0.833333 0.416667
vt 0.875000 0.500000
vt 0.875000 0.666667
vt 0.875000 0.750000
vt 0.875000 0.833333
vt 0.854167 0.916667
vt 0.875000 0.916667
vt 0.875000 0.000000
vt 0.854167 0.000000
vt 0.875000 0.166667
vt 0.875000 0.250000
vt 0.854167 0.250000
vt 0.875000 0.416667
vt 0.895833 0.500000
vt 0.875000 0.583333
vt 0.895833 0.583333
vt 0.895833 0.666667
vt 0.895833 0.750000
vt 0.895833 0.916667
vt 0.895833 1.000000
vt 0.875000 1.000000
vt 0.895833 0.083333
vt 0.875000 0.083333
vt 0.895833 0.166667
vt 0.895833 0.250000
vt 0.875000 0.333333
vt 0.895833 0.416667
vt 0.916667 0.500000
vt 0.916667 0.583333
vt 0.916667 0.750000
vt 0.895833 0.833333
vt 0.916667 0.833333
vt 0.916667 0.916667
vt 0.916667 0.000000
vt 0.895833 0.000000
vt 0.916667 0.083333
vt 0.916667 0.250000
vt 0.895833 0.333333
vt 0.916667 0.416667
vt 0.937500 0.583333
vt 0.916667 0.666667
vt 0.937500 0.666667
vt 0.937500 0.750000
vt 0.937500 0.916667
vt 0.916667 1.000000
vt 0.937500 0.000000
vt 0.937500 0.083333
vt 0.916667 0.166667
vt 0.937500 0.166667
vt 0.937500 0.250000
vt 0.916667 0.333333
vt 0.937500 0.416667
vt 0.958333 0.500000
vt 0.937500 0.500000
vt 0.958333 0.583333
vt 0.958333 0.666667
vt 0.958333 0.833333
vt 0.937500 0.833333
vt 0.958333 0.916667
vt 0.958333 1.000000
vt 0.937500 1.000000
vt 0.958333 0.083333
vt 0.958333 0.166667
vt 0.958333 0.250000
vt 0.937500 0.333333
vt 0.958333 0.333333
vt 0.958333 0.416667
vt 0.979167 0.500000
vt 0.979167 0.583333
vt 0.979167 0.666667
vt 0.958333 0.750000
vt 0.979167 0.750000
vt 0.979167 0.833333
vt 0.979167 0.916667
vt 0.979167 0.000000
vt 0.958333 0.000000
vt 0.979167 0.166667
vt 0.979167 0.250000
vt 0.979167 0.333333
vt 0.979167 0.416667
vt 1.000000 0.583333
vt 1.000000 0.666667
vt 1.000000 0.750000
vt 1.000000 0.833333
vt 1.000000 0.916667
vt 0.979167 1.000000
vt 1.000000 0.083333
vt 0.979167 0.083333
vt 1.000000 0.166667
vt 1.000000 0.250000
vt 1.000000 0.333333
vt 1.000000 0.416667
vt 0.000000 0.500000
vt 0.020833 0.583333
vt 0.000000 0.583333
vt 0.000000 0.666667
vt 0.020833 0.666667
vt 0.000000 0.750000
vt 0.020833 0.750000
vt 0.000000 0.833333
vt 0.020833 0.833333
vt 0.000000 0.916667
vt 0.020833 0.916667
vt 0.000000 1.000000
vt 0.020833 0.000000
vt 0.000000 0.083333
vt 0.000000 0.000000
vt 0.020833 0.083333
vt 0.000000 0.166667
vt 0.020833 0.250000
vt 0.000000 0.250000
vt 0.000000 0.333333
vt 0.020833 0.333333
vt 0.000000 0.416667
vt 0.020833 0.500000
vt 0.041667 0.583333
vt 0.041667 0.666667
vt 0.041667 0.750000
vt 0.041667 0.833333
vt 0.041667 0.916667
vt 0.020833 1.000000
vt 0.041667 0.083333
vt 0.020833 0.166667
vt 0.041667 0.166667
vt 0.041667 0.250000
vt 0.041667 0.333333
vt 0.020833 0.416667
vt 0.041667 0.416667
vt 0.062500 0.500000
vt 0.041667 0.500000
vt 0.062500 0.666667
vt 0.062500 0.833333
vt 0.062500 0.916667
vt 0.041667 1.000000
vt 0.062500 0.000000
vt 0.041667 0.000000
vt 0.062500 0.083333
vt 0.062500 0.250000
vt 0.062500 0.333333
vt 0.062500 0.416667
vt 0.083333 0.500000
vt 0.062500 0.583333
vt 0.083333 0.583333
vt 0.083333 0.666667
vt 0.062500 0.750000
vt 0.083333 0.750000
vt 0.083333 0.916667
vt 0.083333 1.000000
vt 0.062500 1.000000
vt 0.083333 0.000000
vt 0.083333 0.083333
vt 0.062500 0.166667
vt 0.083333 0.166667
vt 0.083333 0.250000
vt 0.083333 0.416667
vt 0.104167 0.583333
vt 0.104167 0.666667
vt 0.104167 0.750000
vt 0.083333 0.833333
vt 0.104167 0.916667
vt 0.104167 1.000000
vt 0.104167 0.000000
vt 0.104167 0.083333
vt 0.104167 0.166667
vt 0.104167 0.333333
vt 0.083333 0.333333
vt 0.104167 0.416667
vt 0.104167 0.500000
vt 0.125000 0.500000
vt 0.125000 0.666667
vt 0.125000 0.750000
vt 0.104167 0.833333
vt 0.125000 0.833333
vt 0.125000 0.916667
vt 0.125000 0.083333
vt 0.125000 0.166667
vt 0.104167 0.250000
vt 0.125000 0.333333
vt 0.125000 0.416667
vt 0.145833 0.500000
vt 0.125000 0.583333
vt 0.145833 0.666667
vt 0.145833 0.833333
vt 0.145833 0.916667
vt 0.125000 1.000000
vt 0.145833 0.000000
vt 0.125000 0.000000
vt 0.145833 0.083333
vt 0.145833 0.166667
vt 0.125000 0.250000
vt 0.145833 0.250000
vt 0.145833 0.333333
vt 0.166667 0.500000
vt 0.145833 0.583333
vt 0.166667 0.666667
vt 0.145833 0.750000
vt 0.166667 0.833333
vt 0.166667 0.916667
vt 0.145833 1.000000
vt 0.166667 0.000000
vt 0.166667 0.166667
vt 0.166667 0.250000
vt 0.166667 0.333333
vt 0.145833 0.416667
vt 0.166667 0.416667
vt 0.187500 0.500000
vt 0.166667 0.583333
vt 0.187500 0.583333
vt 0.187500 0.666667
vt 0.166667 0.750000
vt 0.187500 0.750000
vt 0.187500 0.916667
vt 0.166667 1.000000
vt 0.187500 0.000000
vt 0.166667 0.083333
vt 0.187500 0.083333
vt 0.187500 0.166667
vt 0.187500 0.333333
vt 0.187500 0.416667
vt 0.208333 0.500000
vt 0.208333 0.583333
vt 0.208333 0.666667
vt 0.208333 0.750000
vt 0.187500 0.833333
vt 0.208333 0.833333
vt 0.208333 0.916667
vt 0.187500 1.000000
vt 0.208333 0.000000
vt 0.208333 0.083333
vt 0.208333 0.166667
vt 0.187500 0.250000
vt 0.208333 0.250000
vt 0.208333 0.416667
vt 0.229167 0.500000
vt 0.229167 0.666667
vt 0.229167 0.750000
vt 0.229167 0.916667
vt 0.208333 1.000000
vt 0.229167 0.000000
vt 0.229167 0.083333
vt 0.229167 0.166667
vt 0.229167 0.333333
vt 0.208333 0.333333
vt 0.229167 0.416667
vt 0.250000 0.583333
vt 0.229167 0.583333
vt 0.250000 0.750000
vt 0.229167 0.833333
vt 0.250000 0.833333
vt 0.250000 1.000000
vt 0.229167 1.000000
vt 0.250000 0.000000
vt 0.250000 0.083333
vt 0.250000 0.166667
vt 0.229167 0.250000
vt 0.250000 0.333333
vt 0.250000 0.416667
vt 0.250000 0.500000
vt 0.270833 0.583333
vt 0.270833 0.666667
vt 0.250000 0.666667
vt 0.270833 0.750000
vt 0.270833 0.916667
vt 0.250000 0.916667
vt 0.270833 1.000000
vt 0.270833 0.000000
vt 0.270833 0.166667
vt 0.270833 0.250000
vt 0.250000 0.250000
vt 0.270833 0.416667
vt 0.291667 0.500000
vt 0.270833 0.500000
vt 0.291667 0.583333
vt 0.291667 0.666667
vt 0.291667 0.750000
vt 0.270833 0.833333
vt 0.291667 0.833333
vt 0.291667 0.916667
vt 0.291667 0.083333
vt 0.270833 0.083333
vt 0.291667 0.166667
vt 0.291667 0.250000
vt 0.270833 0.333333
vt 0.291667 0.333333
vt 0.291667 0.416667
vt 0.312500 0.500000
vt 0.312500 0.666667
vt 0.312500 0.833333
vt 0.312500 0.916667
vt 0.291667 1.000000
vt 0.312500 0.000000
vt 0.291667 0.000000
vt 0.312500 0.166667
vt 0.312500 0.250000
vt 0.312500 0.333333
vt 0.333333 0.583333
vt 0.312500 0.583333
vt 0.333333 0.750000
vt 0.312500 0.750000
vt 0.333333 0.833333
vt 0.333333 0.916667
vt 0.333333 1.000000
vt 0.312500 1.000000
vt 0.333333 0.000000
vt 0.312500 0.083333
vt 0.333333 0.083333
vt 0.333333 0.166667
vt 0.333333 0.250000
vt 0.333333 0.416667
vt 0.312500 0.416667
vt 0.333333 0.500000
vt 0.354167 0.500000
vt 0.354167 0.583333
vt 0.333333 0.666667
vt 0.354167 0.750000
vt 0.354167 0.833333
vt 0.354167 0.916667
vt 0.354167 0.000000
vt 0.354167 0.166667
vt 0.354167 0.250000
vt 0.333333 0.333333
vt 0.354167 0.416667
vt 0.375000 0.500000
vt 0.375000 0.583333
vt 0.354167 0.666667
vt 0.375000 0.750000
vt 0.375000 0.833333
vt 0.375000 0.916667
vt 0.354167 1.000000
vt 0.375000 0.000000
vt 0.354167 0.083333
vt 0.375000 0.083333
vt 0.375000 0.166667
vt 0.375000 0.250000
vt 0.354167 0.333333
vt 0.375000 0.333333
vt 0.375000 0.416667
vt 0.395833 0.500000
vt 0.395833 0.583333
vt 0.375000 0.666667
vt 0.395833 0.666667
vt 0.395833 0.833333
vt 0.395833 1.000000
vt 0.375000 1.000000
vt 0.395833 0.000000
vt 0.395833 0.083333
vt 0.395833 0.166667
vt 0.395833 0.333333
vt 0.395833 0.416667
vt 0.416667 0.583333
vt 0.416667 0.666667
vt 0.395833 0.750000
vt 0.416667 0.833333
vt 0.395833 0.916667
vt 0.416667 1.000000
vt 0.416667 0.000000
vt 0.416667 0.166667
vt 0.416667 0.250000
vt 0.395833 0.250000
vt 0.416667 0.333333
vt 0.416667 0.416667
vt 0.437500 0.500000
vt 0.416667 0.500000
vt 0.437500 0.666667
vt 0.437500 0.750000
vt 0.416667 0.750000
vt 0.437500 0.833333
vt 0.416667 0.916667
vt 0.437500 0.916667
vt 0.437500 0.000000
vt 0.416667 0.083333
vt 0.437500 0.166667
vt 0.437500 0.250000
vt 0.437500 0.416667
vt 0.458333 0.500000
vt 0.437500 0.583333
vt 0.458333 0.583333
vt 0.458333 0.666667
vt 0.458333 0.833333
vt 0.458333 1.000000
vt 0.437500 1.000000
vt 0.458333 0.000000
vt 0.437500 0.083333
vt 0.458333 0.166667
vt 0.458333 0.250000
vt 0.437500 0.333333
vt 0.458333 0.333333
vt 0.458333 0.416667
vt 0.479167 0.500000
vt 0.479167 0.666667
vt 0.458333 0.750000
vt 0.479167 0.750000
vt 0.479167 0.833333
vt 0.458333 0.916667
vt 0.479167 1.000000
vt 0.479167 0.000000
vt 0.458333 0.083333
vt 0.479167 0.083333
vt 0.479167 0.166667
vt 0.479167 0.250000
vt 0.479167 0.416667
vt 0.479167 0.583333
vt 0.479167 0.916667
vt 0.479167 0.333333
vt 1.000000 0.500000
vt 1.000000 1.000000
vt 1.000000 0.000000
s 0
f 13/1/1 2/2/1 1/3/1
f 2/2/2 15/4/2 3/5/2
f 3/5/3 16/6/3 4/7/3
f 16/6/4 5/8/4 4/7/4
f 17/9/5 6/10/5 5/8/5
f 18/11/6 7/12/6 6/10/6
f 19/13/7 8/14/7 7/15/7
f 20/16/8 9/17/8 8/14/8
f 9/17/9 22/18/9 10/19/9
f 22/18/10 11/20/10 10/19/10
f 11/20/11 24/21/11 12/22/11
f 24/21/12 1/3/12 12/22/12
f 25/23/13 14/24/13 13/1/13
f 26/25/14 15/4/14 14/24/14
f 27/26/15 16/6/15 15/4/15
f 28/27/16 17/9/16 16/6/16
f 29/28/17 18/11/17 17/9/17
f 30/29/18 19/30/18 18/11/18
f 19/13/19 32/31/19 20/16/19
f 32/31/20 21/32/20 20/16/20
f 33/33/21 22/18/21 21/32/21
f 34/34/22 23/35/22 22/18/22
f 35/36/23 24/21/23 23/35/23
f 24/21/24 25/23/24 13/1/24
f 37/37/25 26/25/25 25/23/25
f 38/38/26 27/26/26 26/25/26
f 27/26/27 40/39/27 28/27/27
f 28/27/28 41/40/28 29/28/28
f 29/28/29 42/41/29 30/29/29
f 42/41/30 31/42/30 30/29/30
f 43/43/31 32/31/31 31/44/31
f 44/45/32 33/33/32 32/31/32
f 45/46/33 34/34/33 33/33/33
f 46/47/34 35/36/34 34/34/34
f 47/48/35 36/49/35 35/36/35
f 48/50/36 25/23/36 36/49/36
f 49/51/37 38/38/37 37/37/37
f 50/52/38 39/53/38 38/38/38
f 39/53/39 52/54/39 40/39/39
f 52/54/40 41/40/40 40/39/40
f 53/55/41 42/41/41 41/40/41
f 54/56/42 43/57/42 42/41/42
f 55/58/43 44/45/43 43/43/43
f 56/59/44 45/46/44 44/45/44
f 57/60/45 46/47/45 45/46/45
f 46/47/46 59/61/46 47/48/46
f 47/48/47 60/62/47 48/50/47
f 60/62/48 37/37/48 48/50/48
f 61/63/49 50/52/49 49/51/49
f 62/64/50 51/65/50 50/52/50
f 51/65/51 64/66/51 52/54/51
f 64/66/52 53/55/52 52/54/52
f 65/67/53 54/56/53 53/55/53
f 66/68/54 55/69/54 54/56/54
f 55/58/55 68/70/55 56/59/55
f 68/70/56 57/60/56 56/59/56
f 69/71/57 58/72/57 57/60/57
f 70/73/58 59/61/58 58/72/58
f 71/74/59 60/62/59 59/61/59
f 72/75/60 49/51/60 60/62/60
f 73/76/61 62/64/61 61/63/61
f 62/64/62 75/77/62 63/78/62
f 75/77/63 64/66/63 63/78/63
f 76/79/64 65/67/64 64/66/64
f 77/80/65 66/68/65 65/67/65
f 78/81/66 67/82/66 66/68/66
f 67/83/67 80/84/67 68/70/67
f 80/84/68 69/71/68 68/70/68
f 69/71/69 82/85/69 70/73/69
f 82/85/70 71/74/70 70/73/70
f 83/86/71 72/75/71 71/74/71
f 72/75/72 73/76/72 61/63/72
f 73/76/73 86/87/73 74/88/73
f 74/88/74 87/89/74 75/77/74
f 87/89/75 76/79/75 75/77/75
f 88/90/76 77/80/76 76/79/76
f 89/91/77 78/81/77 77/80/77
f 90/92/78 79/93/78 78/81/78
f 79/94/79 92/95/79 80/84/79
f 92/95/80 81/96/80 80/84/80
f 93/97/81 82/85/81 81/96/81
f 94/98/82 83/86/82 82/85/82
f 95/99/83 84/100/83 83/86/83
f 96/101/84 73/76/84 84/100/84
f 85/102/85 98/103/85 86/87/85
f 86/87/86 99/104/86 87/89/86
f 87/89/87 100/105/87 88/90/87
f 88/90/88 101/106/88 89/91/88
f 89/91/89 102/107/89 90/92/89
f 102/107/90 91/108/90 90/92/90
f 103/109/91 92/95/91 91/110/91
f 104/111/92 93/97/92 92/95/92
f 105/112/93 94/98/93 93/97/93
f 106/113/94 95/99/94 94/98/94
f 107/114/95 96/101/95 95/99/95
f 108/115/96 85/102/96 96/101/96
f 109/116/97 98/103/97 97/117/97
f 110/118/98 99/104/98 98/103/98
f 111/119/99 100/105/99 99/104/99
f 112/120/100 101/106/100 100/105/100
f 113/121/101 102/107/101 101/106/101
f 114/122/102 103/123/102 102/107/102
f 115/124/103 104/111/103 103/109/103
f 104/111/104 117/125/104 105/112/104
f 105/112/105 118/126/105 106/113/105
f 106/113/106 119/127/106 107/114/106
f 119/127/107 108/115/107 107/114/107
f 120/128/108 97/117/108 108/115/108
f 121/129/109 110/118/109 109/116/109
f 110/118/110 123/130/110 111/119/110
f 111/119/111 124/131/111 112/120/111
f 124/131/112 113/121/112 112/120/112
f 125/132/113 114/122/113 113/121/113
f 126/133/114 115/134/114 114/122/114
f 127/135/115 116/136/115 115/124/115
f 128/137/116 117/125/116 116/136/116
f 129/138/117 118/126/117 117/125/117
f 130/139/118 119/127/118 118/126/118
f 131/140/119 120/128/119 119/127/119
f 120/128/120 121/129/120 109/116/120
f 133/141/121 122/142/121 121/129/121
f 134/143/122 123/130/122 122/142/122
f 135/144/123 124/131/123 123/130/123
f 136/145/124 125/132/124 124/131/124
f 137/146/125 126/133/125 125/132/125
f 126/133/126 139/147/126 127/148/126
f 139/149/127 128/137/127 127/135/127
f 140/150/128 129/138/128 128/137/128
f 129/138/129 142/151/129 130/139/129
f 142/151/130 131/140/130 130/139/130
f 143/152/131 132/153/131 131/140/131
f 144/154/132 121/129/132 132/153/132
f 133/141/133 146/155/133 134/143/133
f 146/155/134 135/144/134 134/143/134
f 147/156/135 136/145/135 135/144/135
f 136/145/136 149/157/136 137/146/136
f 149/157/137 138/158/137 137/146/137
f 150/159/138 139/147/138 138/158/138
f 151/160/139 140/150/139 139/149/139
f 152/161/140 141/162/140 140/150/140
f 153/163/141 142/151/141 141/162/141
f 142/151/142 155/164/142 143/152/142
f 143/152/143 156/165/143 144/154/143
f 156/165/144 133/141/144 144/154/144
f 145/166/145 158/167/145 146/155/145
f 146/155/146 159/168/146 147/156/146
f 159/168/147 148/169/147 147/156/147
f 148/169/148 161/170/148 149/157/148
f 161/170/149 150/159/149 149/157/149
f 162/171/150 151/172/150 150/159/150
f 163/173/151 152/161/151 151/160/151
f 164/174/152 153/163/152 152/161/152
f 165/175/153 154/176/153 153/163/153
f 154/176/154 167/177/154 155/164/154
f 167/177/155 156/165/155 155/164/155
f 156/165/156 157/178/156 145/166/156
f 157/178/157 170/179/157 158/167/157
f 158/167/158 171/180/158 159/168/158
f 171/180/159 160/181/159 159/168/159
f 160/181/160 173/182/160 161/170/160
f 173/182/161 162/171/161 161/170/161
f 174/183/162 163/184/162 162/171/162
f 163/173/163 176/185/163 164/174/163
f 176/185/164 165/175/164 164/174/164
f 177/186/165 166/187/165 165/175/165
f 178/188/166 167/177/166 166/187/166
f 179/189/167 168/190/167 167/177/167
f 168/190/168 169/191/168 157/178/168
f 169/191/169 182/192/169 170/179/169
f 182/192/170 171/180/170 170/179/170
f 171/180/171 184/193/171 172/194/171
f 184/193/172 173/182/172 172/194/172
f 185/195/173 174/183/173 173/182/173
f 186/196/174 175/197/174 174/183/174
f 175/198/175 188/199/175 176/185/175
f 176/185/176 189/200/176 177/186/176
f 177/186/177 190/201/177 178/188/177
f 178/188/178 191/202/178 179/189/178
f 191/202/179 180/203/179 179/189/179
f 180/203/180 181/204/180 169/191/180
f 193/205/181 182/192/181 181/204/181
f 194/206/182 183/207/182 182/192/182
f 195/208/183 184/193/183 183/207/183
f 196/209/184 185/195/184 184/193/184
f 197/210/185 186/196/185 185/195/185
f 198/211/186 187/212/186 186/196/186
f 199/213/187 188/199/187 187/214/187
f 188/199/188 201/215/188 189/200/188
f 189/200/189 202/216/189 190/201/189
f 202/216/190 191/202/190 190/201/190
f 203/217/191 192/218/191 191/202/191
f 192/218/192 193/205/192 181/204/192
f 205/219/193 194/206/193 193/205/193
f 206/220/194 195/208/194 194/206/194
f 207/221/195 196/209/195 195/208/195
f 208/222/196 197/210/196 196/209/196
f 209/223/197 198/211/197 197/210/197
f 198/211/198 211/224/198 199/225/198
f 199/213/199 212/226/199 200/227/199
f 212/226/200 201/215/200 200/227/200
f 213/228/201 202/216/201 201/215/201
f 202/216/202 215/229/202 203/217/202
f 203/217/203 216/230/203 204/231/203
f 204/231/204 205/219/204 193/205/204
f 217/232/205 206/220/205 205/219/205
f 206/220/206 219/233/206 207/221/206
f 207/221/207 220/234/207 208/222/207
f 220/234/208 209/223/208 208/222/208
f 221/235/209 210/236/209 209/223/209
f 222/237/210 211/224/210 210/236/210
f 223/238/211 212/226/211 211/239/211
f 212/226/212 225/240/212 213/228/212
f 213/228/213 226/241/213 214/242/213
f 226/241/214 215/229/214 214/242/214
f 215/229/215 228/243/215 216/230/215
f 228/243/216 205/219/216 216/230/216
s 1
f 229/244/217 218/245/218 217/232/219
f 230/246/220 219/233/221 218/245/218
f 231/247/222 220/234/223 219/233/221
f 232/248/224 221/235/225 220/234/223
f 221/235/225 234/249/226 222/237/227
s 0
f 222/237/228 235/250/228 223/251/228
f 223/238/229 236/252/229 224/253/229
f 224/253/230 237/254/230 225/240/230
s 1
f 225/240/231 238/255/232 226/241/233
f 238/255/232 227/256/234 226/241/233
f 227/256/234 240/257/235 228/243/236
f 240/257/235 217/232/219 228/243/236
f 241/258/237 230/246/220 229/244/217
f 242/259/238 231/247/222 230/246/220
f 231/247/222 244/260/239 232/248/224
f 244/260/239 233/261/240 232/248/224
f 245/262/241 234/249/226 233/261/240
f 246/263/242 235/250/243 234/249/226
f 247/264/244 236/252/245 235/265/243
f 248/266/246 237/254/247 236/252/245
f 237/254/247 250/267/248 238/255/232
f 250/267/248 239/268/249 238/255/232
f 239/268/249 252/269/250 240/257/235
f 252/269/250 229/244/217 240/257/235
f 241/258/237 254/270/251 242/259/238
f 254/270/251 243/271/252 242/259/238
f 255/272/253 244/260/239 243/271/252
f 256/273/254 245/262/241 244/260/239
f 245/262/241 258/274/255 246/263/242
f 258/274/255 247/275/244 246/263/242
f 259/276/256 248/266/246 247/264/244
f 260/277/257 249/278/258 248/266/246
f 261/279/259 250/267/248 249/278/258
f 262/280/260 251/281/261 250/267/248
f 251/281/261 264/282/262 252/269/250
f 264/282/262 241/258/237 252/269/250
f 265/283/263 254/270/251 253/284/264
f 266/285/265 255/272/253 254/270/251
f 267/286/266 256/273/254 255/272/253
f 256/273/254 269/287/267 257/288/268
f 257/288/268 270/289/269 258/274/255
f 258/274/255 271/290/270 259/291/256
f 259/276/256 272/292/271 260/277/257
f 260/277/257 273/293/272 261/279/259
f 273/293/272 262/280/260 261/279/259
f 274/294/273 263/295/274 262/280/260
f 275/296/275 264/282/262 263/295/274
f 276/297/276 253/284/264 264/282/262
f 277/298/277 266/285/265 265/283/263
f 278/299/278 267/286/266 266/285/265
f 279/300/279 268/301/280 267/286/266
f 280/302/281 269/287/267 268/301/280
f 281/303/282 270/289/269 269/287/267
f 282/304/283 271/290/270 270/289/269
f 283/305/284 272/292/271 271/306/270
f 272/292/271 285/307/285 273/293/272
f 273/293/272 286/308/286 274/294/273
f 274/294/273 287/309/287 275/296/275
f 275/296/275 288/310/288 276/297/276
f 276/297/276 277/298/277 265/283/263
f 277/298/277 290/311/289 278/299/278
f 290/311/289 279/300/279 278/299/278
f 291/312/290 280/302/281 279/300/279
f 292/313/291 281/303/282 280/302/281
f 293/314/292 282/304/283 281/303/282
f 294/315/293 283/316/284 282/304/283
f 283/305/284 296/317/294 284/318/295
f 284/318/295 297/319/296 285/307/285
f 297/319/296 286/308/286 285/307/285
f 298/320/297 287/309/287 286/308/286
f 299/321/298 288/310/288 287/309/287
f 300/322/299 277/298/277 288/310/288
f 289/323/300 302/324/301 290/325/289
f 302/324/301 291/326/290 290/325/289
f 303/327/302 292/328/291 291/326/290
f 304/329/303 293/330/292 292/328/291
f 305/331/304 294/332/293 293/330/292
f 306/333/305 295/334/306 294/332/293
f 307/335/307 296/336/294 295/337/306
f 308/338/308 297/339/296 296/336/294
f 297/339/296 310/340/309 298/341/297
f 310/340/309 299/342/298 298/341/297
f 311/343/310 300/344/299 299/342/298
f 300/344/299 301/345/311 289/323/300
f 301/345/311 314/346/312 302/324/301
f 302/324/301 315/347/313 303/327/302
f 303/327/302 316/348/314 304/329/303
f 304/329/303 317/349/315 305/331/304
f 305/331/304 318/350/316 306/333/305
f 318/350/316 307/351/307 306/333/305
f 307/335/307 320/352/317 308/338/308
f 320/352/317 309/353/318 308/338/308
f 321/354/319 310/340/309 309/353/318
f 322/355/320 311/343/310 310/340/309
f 323/356/321 312/357/322 311/343/310
f 324/358/323 301/345/311 312/357/322
f 325/359/324 314/346/312 313/360/325
f 314/346/312 327/361/326 315/347/313
f 327/361/326 316/348/314 315/347/313
f 316/348/314 329/362/327 317/349/315
f 317/349/315 330/363/328 318/350/316
f 330/363/328 319/364/329 318/350/316
f 331/365/330 320/352/317 319/366/329
f 332/367/331 321/354/319 320/352/317
f 321/354/319 334/368/332 322/355/320
f 322/355/320 335/369/333 323/356/321
f 335/369/333 324/358/323 323/356/321
f 336/370/334 313/360/325 324/358/323
f 337/371/335 326/372/336 325/359/324
f 338/373/337 327/361/326 326/372/336
f 339/374/338 328/375/339 327/361/326
f 340/376/340 329/362/327 328/375/339
f 329/362/327 342/377/341 330/363/328
f 330/363/328 343/378/342 331/379/330
f 343/380/342 332/367/331 331/365/330
f 344/381/343 333/382/344 332/367/331
f 345/383/345 334/368/332 333/382/344
f 346/384/346 335/369/333 334/368/332
f 335/369/333 348/385/347 336/370/334
f 336/370/334 337/371/335 325/359/324
f 337/371/335 350/386/348 338/373/337
f 350/386/348 339/374/338 338/373/337
f 351/387/349 340/376/340 339/374/338
f 352/388/350 341/389/351 340/376/340
f 341/389/351 354/390/352 342/377/341
f 342/377/341 355/391/353 343/378/342
f 355/392/353 344/381/343 343/380/342
f 356/393/354 345/383/345 344/381/343
f 357/394/355 346/384/346 345/383/345
f 346/384/346 359/395/356 347/396/357
f 347/396/357 360/397/358 348/385/347
f 348/385/347 349/398/359 337/371/335
f 361/399/360 350/386/348 349/398/359
f 350/386/348 363/400/361 351/387/349
f 363/400/361 352/388/350 351/387/349
f 364/401/362 353/402/363 352/388/350
f 365/403/364 354/390/352 353/402/363
f 366/404/365 355/391/353 354/390/352
f 355/392/353 368/405/366 356/393/354
f 356/393/354 369/406/367 357/394/355
f 369/406/367 358/407/368 357/394/355
f 358/407/368 371/408/369 359/395/356
f 371/408/369 360/397/358 359/395/356
f 372/409/370 349/398/359 360/397/358
f 373/410/371 362/411/372 361/399/360
f 362/411/372 375/412/373 363/400/361
f 375/412/373 364/401/362 363/400/361
f 364/401/362 377/413/374 365/403/364
f 365/403/364 378/414/375 366/404/365
f 378/414/375 367/415/376 366/404/365
f 379/416/377 368/405/366 367/417/376
f 380/418/378 369/406/367 368/405/366
f 381/419/379 370/420/380 369/406/367
f 382/421/381 371/408/369 370/420/380
f 383/422/382 372/409/370 371/408/369
f 372/409/370 373/410/371 361/399/360
f 385/423/383 374/424/384 373/410/371
f 374/424/384 387/425/385 375/412/373
f 387/425/385 376/426/386 375/412/373
f 376/426/386 389/427/387 377/413/374
f 377/413/374 390/428/388 378/414/375
f 390/428/388 379/429/377 378/414/375
f 391/430/389 380/418/378 379/416/377
f 380/418/378 393/431/390 381/419/379
f 393/431/390 382/421/381 381/419/379
f 394/432/391 383/422/382 382/421/381
f 395/433/392 384/434/393 383/422/382
f 396/435/394 373/410/371 384/434/393
f 397/436/395 386/437/396 385/423/383
f 398/438/397 387/425/385 386/437/396
f 399/439/398 388/440/399 387/425/385
f 400/441/400 389/427/387 388/440/399
f 389/427/387 402/442/401 390/428/388
f 402/442/401 391/443/389 390/428/388
f 403/444/402 392/445/403 391/430/389
f 404/446/404 393/431/390 392/445/403
f 405/447/405 394/432/391 393/431/390
f 394/432/391 407/448/406 395/433/392
f 395/433/392 408/449/407 396/435/394
f 408/449/407 385/423/383 396/435/394
f 409/450/408 398/438/397 397/436/395
f 410/451/409 399/439/398 398/438/397
f 411/452/410 400/441/400 399/439/398
f 412/453/411 401/454/412 400/441/400
f 413/455/413 402/442/401 401/454/412
f 414/456/414 403/457/402 402/442/401
f 415/458/415 404/446/404 403/444/402
f 416/459/416 405/447/405 404/446/404
f 417/460/417 406/461/418 405/447/405
f 418/462/419 407/448/406 406/461/418
f 407/448/406 420/463/420 408/449/407
f 408/449/407 409/450/408 397/436/395
f 421/464/421 410/451/409 409/450/408
f 410/451/409 423/465/422 411/452/410
f 411/452/410 424/466/423 412/453/411
f 424/466/423 413/455/413 412/453/411
f 413/455/413 426/467/424 414/456/414
f 426/467/424 415/468/415 414/456/414
f 427/469/425 416/459/416 415/458/415
f 428/470/426 417/460/417 416/459/416
f 429/471/427 418/462/419 417/460/417
f 418/462/419 431/472/428 419/473/429
f 431/472/428 420/463/420 419/473/429
f 432/474/430 409/450/408 420/463/420
f 421/464/421 434/475/431 422/476/432
f 434/475/431 423/465/422 422/476/432
f 423/465/422 436/477/433 424/466/423
f 436/477/433 425/478/434 424/466/423
f 437/479/435 426/467/424 425/478/434
f 426/467/424 439/480/436 427/481/425
f 439/482/436 428/470/426 427/469/425
f 440/483/437 429/471/427 428/470/426
f 441/484/438 430/485/439 429/471/427
f 430/485/439 443/486/440 431/472/428
f 431/472/428 444/487/441 432/474/430
f 444/487/441 421/464/421 432/474/430
f 433/488/442 446/489/443 434/475/431
f 434/475/431 447/490/444 435/491/445
f 435/491/445 448/492/446 436/477/433
f 448/492/446 437/479/435 436/477/433
f 437/479/435 450/493/447 438/494/448
f 438/494/448 451/495/449 439/480/436
f 451/496/449 440/483/437 439/482/436
f 440/483/437 453/497/450 441/484/438
f 441/484/438 454/498/451 442/499/452
f 454/498/451 443/486/440 442/499/452
f 443/486/440 456/500/453 444/487/441
f 456/500/453 433/488/442 444/487/441
f 457/501/454 446/489/443 445/502/455
f 458/503/456 447/490/444 446/489/443
f 459/504/457 448/492/446 447/490/444
f 460/505/458 449/506/459 448/492/446
f 461/507/460 450/493/447 449/506/459
f 462/508/461 451/495/449 450/493/447
f 451/496/449 464/509/462 452/510/463
f 452/510/463 465/511/464 453/497/450
f 465/511/464 454/498/451 453/497/450
f 466/512/465 455/513/466 454/498/451
f 467/514/467 456/500/453 455/513/466
f 468/515/468 445/502/455 456/500/453
f 469/516/469 458/503/456 457/501/454
f 458/503/456 471/517/470 459/504/457
f 471/517/470 460/505/458 459/504/457
f 460/505/458 473/518/471 461/507/460
f 473/518/471 462/508/461 461/507/460
f 474/519/472 463/520/473 462/508/461
f 475/521/474 464/509/462 463/522/473
f 464/509/462 477/523/475 465/511/464
f 477/523/475 466/512/465 465/511/464
f 478/524/476 467/514/467 466/512/465
f 479/525/477 468/515/468 467/514/467
f 468/515/468 469/516/469 457/501/454
s 0
f 469/516/186 482/526/186 470/527/186
f 482/526/185 471/517/185 470/527/185
f 471/517/184 484/528/184 472/529/184
f 472/529/183 485/530/183 473/518/183
f 473/518/478 486/531/478 474/519/478
f 474/519/479 487/532/479 475/533/479
f 487/534/480 476/535/480 475/521/480
f 488/536/191 477/523/191 476/535/191
f 489/537/190 478/524/190 477/523/190
f 490/538/189 479/525/189 478/524/189
f 479/525/188 492/539/188 480/540/188
f 480/540/187 481/541/187 469/516/187
f 493/542/198 482/526/198 481/541/198
f 494/543/481 483/544/481 482/526/481
f 483/544/196 496/545/196 484/528/196
f 496/545/195 485/530/195 484/528/195
f 497/546/194 486/531/194 485/530/194
f 498/547/193 487/532/193 486/531/193
f 499/548/204 488/536/204 487/534/204
f 488/536/203 501/549/203 489/537/203
f 489/537/202 502/550/202 490/538/202
f 502/550/201 491/551/201 490/538/201
f 491/551/200 504/552/200 492/539/200
f 504/552/199 481/541/199 492/539/199
f 505/553/482 494/543/482 493/542/482
f 506/554/483 495/555/483 494/543/483
f 495/555/208 508/556/208 496/545/208
f 496/545/207 509/557/207 497/546/207
f 509/557/206 498/547/206 497/546/206
f 510/558/205 499/559/205 498/547/205
f 511/560/216 500/561/216 499/548/216
f 512/562/215 501/549/215 500/561/215
f 513/563/214 502/550/214 501/549/214
f 514/564/213 503/565/213 502/550/213
f 515/566/212 504/552/212 503/565/212
f 516/567/211 493/542/211 504/552/211
f 517/568/484 506/554/484 505/553/484
f 518/569/485 507/570/485 506/554/485
f 519/571/486 508/556/486 507/570/486
f 508/556/487 521/572/487 509/557/487
f 521/572/488 510/558/488 509/557/488
f 510/558/489 523/573/489 511/574/489
f 523/575/490 512/562/490 511/560/490
f 524/576/491 513/563/491 512/562/491
f 525/577/492 514/564/492 513/563/492
f 514/564/231 527/578/231 515/566/231
f 515/566/230 528/579/230 516/567/230
f 528/579/493 505/553/493 516/567/493
f 517/568/494 530/580/494 518/569/494
f 530/580/495 519/571/495 518/569/495
f 531/581/496 520/582/496 519/571/496
f 520/582/497 533/583/497 521/572/497
f 533/583/498 522/584/498 521/572/498
f 522/584/499 535/585/499 523/573/499
f 535/586/500 524/576/500 523/575/500
f 524/576/501 537/587/501 525/577/501
f 525/577/502 538/588/502 526/589/502
f 538/588/503 527/578/503 526/589/503
f 539/590/504 528/579/504 527/578/504
f 540/591/505 517/568/505 528/579/505
f 541/592/506 530/580/506 529/593/506
f 530/580/507 543/594/507 531/581/507
f 531/581/508 544/595/508 532/596/508
f 532/596/509 545/597/509 533/583/509
f 545/597/510 534/598/510 533/583/510
f 546/599/511 535/585/511 534/598/511
f 547/600/512 536/601/512 535/586/512
f 536/601/513 549/602/513 537/587/513
f 537/587/514 550/603/514 538/588/514
f 550/603/515 539/590/515 538/588/515
f 539/590/516 552/604/516 540/591/516
f 552/604/517 529/593/517 540/591/517
f 553/605/518 542/606/518 541/592/518
f 554/607/519 543/594/519 542/606/519
f 555/608/520 544/595/520 543/594/520
f 544/595/521 557/609/521 545/597/521
f 557/609/522 546/599/522 545/597/522
f 546/599/523 559/610/523 547/611/523
f 559/612/524 548/613/524 547/600/524
f 548/613/525 561/614/525 549/602/525
f 549/602/526 562/615/526 550/603/526
f 562/615/527 551/616/527 550/603/527
f 563/617/528 552/604/528 551/616/528
f 564/618/529 541/592/529 552/604/529
f 565/619/530 554/607/530 553/605/530
f 554/607/531 567/620/531 555/608/531
f 567/620/532 556/621/532 555/608/532
f 568/622/533 557/609/533 556/621/533
f 569/623/534 558/624/534 557/609/534
f 558/624/535 571/625/535 559/610/535
f 571/626/536 560/627/536 559/612/536
f 572/628/537 561/614/537 560/627/537
f 573/629/538 562/615/538 561/614/538
f 574/630/539 563/617/539 562/615/539
f 563/617/540 576/631/540 564/618/540
f 564/618/541 565/619/541 553/605/541
f 1/3/542 566/632/542 565/619/542
f 566/632/543 3/5/543 567/620/543
f 3/5/544 568/622/544 567/620/544
f 568/622/545 5/8/545 569/623/545
f 569/623/546 6/10/546 570/633/546
f 570/633/547 7/12/547 571/625/547
f 7/15/548 572/628/548 571/626/548
f 8/14/549 573/629/549 572/628/549
f 9/17/550 574/630/550 573/629/550
f 574/630/551 11/20/551 575/634/551
f 11/20/552 576/631/552 575/634/552
f 12/22/553 565/619/553 576/631/553
f 13/1/1 14/24/1 2/2/1
f 2/2/2 14/24/2 15/4/2
f 3/5/3 15/4/3 16/6/3
f 16/6/4 17/9/4 5/8/4
f 17/9/5 18/11/5 6/10/5
f 18/11/6 19/30/6 7/12/6
f 19/13/7 20/16/7 8/14/7
f 20/16/8 21/32/8 9/17/8
f 9/17/9 21/32/9 22/18/9
f 22/18/10 23/35/10 11/20/10
f 11/20/11 23/35/11 24/21/11
f 24/21/12 13/1/12 1/3/12
f 25/23/13 26/25/13 14/24/13
f 26/25/14 27/26/14 15/4/14
f 27/26/15 28/27/15 16/6/15
f 28/27/16 29/28/16 17/9/16
f 29/28/17 30/29/17 18/11/17
f 30/29/18 31/42/18 19/30/18
f 19/13/19 31/44/19 32/31/19
f 32/31/20 33/33/20 21/32/20
f 33/33/21 34/34/21 22/18/21
f 34/34/22 35/36/22 23/35/22
f 35/36/23 36/49/23 24/21/23
f 24/21/24 36/49/24 25/23/24
f 37/37/554 38/38/554 26/25/554
f 38/38/26 39/53/26 27/26/26
f 27/26/555 39/53/555 40/39/555
f 28/27/556 40/39/556 41/40/556
f 29/28/557 41/40/557 42/41/557
f 42/41/30 43/57/30 31/42/30
f 43/43/31 44/45/31 32/31/31
f 44/45/32 45/46/32 33/33/32
f 45/46/33 46/47/33 34/34/33
f 46/47/34 47/48/34 35/36/34
f 47/48/35 48/50/35 36/49/35
f 48/50/36 37/37/36 25/23/36
f 49/51/37 50/52/37 38/38/37
f 50/52/38 51/65/38 39/53/38
f 39/53/39 51/65/39 52/54/39
f 52/54/40 53/55/40 41/40/40
f 53/55/41 54/56/41 42/41/41
f 54/56/42 55/69/42 43/57/42
f 55/58/43 56/59/43 44/45/43
f 56/59/44 57/60/44 45/46/44
f 57/60/45 58/72/45 46/47/45
f 46/47/46 58/72/46 59/61/46
f 47/48/47 59/61/47 60/62/47
f 60/62/48 49/51/48 37/37/48
f 61/63/49 62/64/49 50/52/49
f 62/64/50 63/78/50 51/65/50
f 51/65/558 63/78/558 64/66/558
f 64/66/559 65/67/559 53/55/559
f 65/67/560 66/68/560 54/56/560
f 66/68/54 67/82/54 55/69/54
f 55/58/55 67/83/55 68/70/55
f 68/70/56 69/71/56 57/60/56
f 69/71/57 70/73/57 58/72/57
f 70/73/58 71/74/58 59/61/58
f 71/74/59 72/75/59 60/62/59
f 72/75/60 61/63/60 49/51/60
f 73/76/61 74/88/61 62/64/61
f 62/64/62 74/88/62 75/77/62
f 75/77/63 76/79/63 64/66/63
f 76/79/64 77/80/64 65/67/64
f 77/80/65 78/81/65 66/68/65
f 78/81/66 79/93/66 67/82/66
f 67/83/67 79/94/67 80/84/67
f 80/84/68 81/96/68 69/71/68
f 69/71/69 81/96/69 82/85/69
f 82/85/70 83/86/70 71/74/70
f 83/86/71 84/100/71 72/75/71
f 72/75/72 84/100/72 73/76/72
f 73/76/73 85/102/73 86/87/73
f 74/88/74 86/87/74 87/89/74
f 87/89/75 88/90/75 76/79/75
f 88/90/76 89/91/76 77/80/76
f 89/91/77 90/92/77 78/81/77
f 90/92/78 91/108/78 79/93/78
f 79/94/79 91/110/79 92/95/79
f 92/95/80 93/97/80 81/96/80
f 93/97/81 94/98/81 82/85/81
f 94/98/82 95/99/82 83/86/82
f 95/99/83 96/101/83 84/100/83
f 96/101/84 85/102/84 73/76/84
f 85/102/85 97/117/85 98/103/85
f 86/87/86 98/103/86 99/104/86
f 87/89/87 99/104/87 100/105/87
f 88/90/88 100/105/88 101/106/88
f 89/91/89 101/106/89 102/107/89
f 102/107/90 103/123/90 91/108/90
f 103/109/91 104/111/91 92/95/91
f 104/111/92 105/112/92 93/97/92
f 105/112/93 106/113/93 94/98/93
f 106/113/94 107/114/94 95/99/94
f 107/114/95 108/115/95 96/101/95
f 108/115/96 97/117/96 85/102/96
f 109/116/97 110/118/97 98/103/97
f 110/118/98 111/119/98 99/104/98
f 111/119/99 112/120/99 100/105/99
f 112/120/100 113/121/100 101/106/100
f 113/121/101 114/122/101 102/107/101
f 114/122/102 115/134/102 103/123/102
f 115/124/103 116/136/103 104/111/103
f 104/111/104 116/136/104 117/125/104
f 105/112/105 117/125/105 118/126/105
f 106/113/106 118/126/106 119/127/106
f 119/127/107 120/128/107 108/115/107
f 120/128/108 109/116/108 97/117/108
f 121/129/109 122/142/109 110/118/109
f 110/118/110 122/142/110 123/130/110
f 111/119/111 123/130/111 124/131/111
f 124/131/112 125/132/112 113/121/112
f 125/132/113 126/133/113 114/122/113
f 126/133/114 127/148/114 115/134/114
f 127/135/115 128/137/115 116/136/115
f 128/137/116 129/138/116 117/125/116
f 129/138/117 130/139/117 118/126/117
f 130/139/118 131/140/118 119/127/118
f 131/140/119 132/153/119 120/128/119
f 120/128/120 132/153/120 121/129/120
f 133/141/121 134/143/121 122/142/121
f 134/143/122 135/144/122 123/130/122
f 135/144/123 136/145/123 124/131/123
f 136/145/124 137/146/124 125/132/124
f 137/146/125 138/158/125 126/133/125
f 126/133/126 138/158/126 139/147/126
f 139/149/127 140/150/127 128/137/127
f 140/150/128 141/162/128 129/138/128
f 129/138/129 141/162/129 142/151/129
f 142/151/130 143/152/130 131/140/130
f 143/152/131 144/154/131 132/153/131
f 144/154/561 133/141/561 121/129/561
f 133/141/133 145/166/133 146/155/133
f 146/155/134 147/156/134 135/144/134
f 147/156/135 148/169/135 136/145/135
f 136/145/136 148/169/136 149/157/136
f 149/157/137 150/159/137 138/158/137
f 150/159/138 151/172/138 139/147/138
f 151/160/139 152/161/139 140/150/139
f 152/161/140 153/163/140 141/162/140
f 153/163/141 154/176/141 142/151/141
f 142/151/142 154/176/142 155/164/142
f 143/152/143 155/164/143 156/165/143
f 156/165/144 145/166/144 133/141/144
f 145/166/145 157/178/145 158/167/145
f 146/155/146 158/167/146 159/168/146
f 159/168/147 160/181/147 148/169/147
f 148/169/148 160/181/148 161/170/148
f 161/170/149 162/171/149 150/159/149
f 162/171/150 163/184/150 151/172/150
f 163/173/151 164/174/151 152/161/151
f 164/174/152 165/175/152 153/163/152
f 165/175/153 166/187/153 154/176/153
f 154/176/154 166/187/154 167/177/154
f 167/177/155 168/190/155 156/165/155
f 156/165/156 168/190/156 157/178/156
f 157/178/562 169/191/562 170/179/562
f 158/167/563 170/179/563 171/180/563
f 171/180/159 172/194/159 160/181/159
f 160/181/160 172/194/160 173/182/160
f 173/182/161 174/183/161 162/171/161
f 174/183/162 175/197/162 163/184/162
f 163/173/163 175/198/163 176/185/163
f 176/185/164 177/186/164 165/175/164
f 177/186/165 178/188/165 166/187/165
f 178/188/166 179/189/166 167/177/166
f 179/189/167 180/203/167 168/190/167
f 168/190/564 180/203/564 169/191/564
f 169/191/169 181/204/169 182/192/169
f 182/192/170 183/207/170 171/180/170
f 171/180/171 183/207/171 184/193/171
f 184/193/172 185/195/172 173/182/172
f 185/195/173 186/196/173 174/183/173
f 186/196/174 187/212/174 175/197/174
f 175/198/175 187/214/175 188/199/175
f 176/185/176 188/199/176 189/200/176
f 177/186/177 189/200/177 190/201/177
f 178/188/178 190/201/178 191/202/178
f 191/202/179 192/218/179 180/203/179
f 180/203/180 192/218/180 181/204/180
f 193/205/565 194/206/565 182/192/565
f 194/206/478 195/208/478 183/207/478
f 195/208/183 196/209/183 184/193/183
f 196/209/184 197/210/184 185/195/184
f 197/210/185 198/211/185 186/196/185
f 198/211/186 199/225/186 187/212/186
f 199/213/187 200/227/187 188/199/187
f 188/199/188 200/227/188 201/215/188
f 189/200/189 201/215/189 202/216/189
f 202/216/190 203/217/190 191/202/190
f 203/217/191 204/231/191 192/218/191
f 192/218/480 204/231/480 193/205/480
f 205/219/193 206/220/193 194/206/193
f 206/220/194 207/221/194 195/208/194
f 207/221/195 208/222/195 196/209/195
f 208/222/196 209/223/196 197/210/196
f 209/223/197 210/236/197 198/211/197
f 198/211/198 210/236/198 211/224/198
f 199/213/199 211/239/199 212/226/199
f 212/226/200 213/228/200 201/215/200
f 213/228/201 214/242/201 202/216/201
f 202/216/202 214/242/202 215/229/202
f 203/217/203 215/229/203 216/230/203
f 204/231/204 216/230/204 205/219/204
f 217/232/205 218/245/205 206/220/205
f 206/220/206 218/245/206 219/233/206
f 207/221/207 219/233/207 220/234/207
f 220/234/208 221/235/208 209/223/208
f 221/235/209 222/237/209 210/236/209
f 222/237/210 223/251/210 211/224/210
f 223/238/211 224/253/211 212/226/211
f 212/226/212 224/253/212 225/240/212
f 213/228/213 225/240/213 226/241/213
f 226/241/214 227/256/214 215/229/214
f 215/229/215 227/256/215 228/243/215
f 228/243/216 217/232/216 205/219/216
s 1
f 229/244/217 230/246/220 218/245/218
f 230/246/220 231/247/222 219/233/221
f 231/247/222 232/248/224 220/234/223
f 232/248/224 233/261/240 221/235/225
f 221/235/225 233/261/240 234/249/226
s 0
f 222/237/228 234/249/228 235/250/228
f 223/238/229 235/265/229 236/252/229
f 224/253/230 236/252/230 237/254/230
s 1
f 225/240/231 237/254/247 238/255/232
f 238/255/232 239/268/249 227/256/234
f 227/256/234 239/268/249 240/257/235
f 240/257/235 229/244/217 217/232/219
f 241/258/237 242/259/238 230/246/220
f 242/259/238 243/271/252 231/247/222
f 231/247/222 243/271/252 244/260/239
f 244/260/239 245/262/241 233/261/240
f 245/262/241 246/263/242 234/249/226
f 246/263/242 247/275/244 235/250/243
f 247/264/244 248/266/246 236/252/245
f 248/266/246 249/278/258 237/254/247
f 237/254/247 249/278/258 250/267/248
f 250/267/248 251/281/261 239/268/249
f 239/268/249 251/281/261 252/269/250
f 252/269/250 241/258/237 229/244/217
f 241/258/237 253/284/264 254/270/251
f 254/270/251 255/272/253 243/271/252
f 255/272/253 256/273/254 244/260/239
f 256/273/254 257/288/268 245/262/241
f 245/262/241 257/288/268 258/274/255
f 258/274/255 259/291/256 247/275/244
f 259/276/256 260/277/257 248/266/246
f 260/277/257 261/279/259 249/278/258
f 261/279/259 262/280/260 250/267/248
f 262/280/260 263/295/274 251/281/261
f 251/281/261 263/295/274 264/282/262
f 264/282/262 253/284/264 241/258/237
f 265/283/263 266/285/265 254/270/251
f 266/285/265 267/286/266 255/272/253
f 267/286/266 268/301/280 256/273/254
f 256/273/254 268/301/280 269/287/267
f 257/288/268 269/287/267 270/289/269
f 258/274/255 270/289/269 271/290/270
f 259/276/256 271/306/270 272/292/271
f 260/277/257 272/292/271 273/293/272
f 273/293/272 274/294/273 262/280/260
f 274/294/273 275/296/275 263/295/274
f 275/296/275 276/297/276 264/282/262
f 276/297/276 265/283/263 253/284/264
f 277/298/277 278/299/278 266/285/265
f 278/299/278 279/300/279 267/286/266
f 279/300/279 280/302/281 268/301/280
f 280/302/281 281/303/282 269/287/267
f 281/303/282 282/304/283 270/289/269
f 282/304/283 283/316/284 271/290/270
f 283/305/284 284/318/295 272/292/271
f 272/292/271 284/318/295 285/307/285
f 273/293/272 285/307/285 286/308/286
f 274/294/273 286/308/286 287/309/287
f 275/296/275 287/309/287 288/310/288
f 276/297/276 288/310/288 277/298/277
f 277/298/277 289/635/300 290/311/289
f 290/311/289 291/312/290 279/300/279
f 291/312/290 292/313/291 280/302/281
f 292/313/291 293/314/292 281/303/282
f 293/314/292 294/315/293 282/304/283
f 294/315/293 295/636/306 283/316/284
f 283/305/284 295/637/306 296/317/294
f 284/318/295 296/317/294 297/319/296
f 297/319/296 298/320/297 286/308/286
f 298/320/297 299/321/298 287/309/287
f 299/321/298 300/322/299 288/310/288
f 300/322/299 289/635/300 277/298/277
f 289/323/300 301/345/311 302/324/301
f 302/324/301 303/327/302 291/326/290
f 303/327/302 304/329/303 292/328/291
f 304/329/303 305/331/304 293/330/292
f 305/331/304 306/333/305 294/332/293
f 306/333/305 307/351/307 295/334/306
f 307/335/307 308/338/308 296/336/294
f 308/338/308 309/353/318 297/339/296
f 297/339/296 309/353/318 310/340/309
f 310/340/309 311/343/310 299/342/298
f 311/343/310 312/357/322 300/344/299
f 300/344/299 312/357/322 301/345/311
f 301/345/311 313/360/325 314/346/312
f 302/324/301 314/346/312 315/347/313
f 303/327/302 315/347/313 316/348/314
f 304/329/303 316/348/314 317/349/315
f 305/331/304 317/349/315 318/350/316
f 318/350/316 319/364/329 307/351/307
f 307/335/307 319/366/329 320/352/317
f 320/352/317 321/354/319 309/353/318
f 321/354/319 322/355/320 310/340/309
f 322/355/320 323/356/321 311/343/310
f 323/356/321 324/358/323 312/357/322
f 324/358/323 313/360/325 301/345/311
f 325/359/324 326/372/336 314/346/312
f 314/346/312 326/372/336 327/361/326
f 327/361/326 328/375/339 316/348/314
f 316/348/314 328/375/339 329/362/327
f 317/349/315 329/362/327 330/363/328
f 330/363/328 331/379/330 319/364/329
f 331/365/330 332/367/331 320/352/317
f 332/367/331 333/382/344 321/354/319
f 321/354/319 333/382/344 334/368/332
f 322/355/320 334/368/332 335/369/333
f 335/369/333 336/370/334 324/358/323
f 336/370/334 325/359/324 313/360/325
f 337/371/335 338/373/337 326/372/336
f 338/373/337 339/374/338 327/361/326
f 339/374/338 340/376/340 328/375/339
f 340/376/340 341/389/351 329/362/327
f 329/362/327 341/389/351 342/377/341
f 330/363/328 342/377/341 343/378/342
f 343/380/342 344/381/343 332/367/331
f 344/381/343 345/383/345 333/382/344
f 345/383/345 346/384/346 334/368/332
f 346/384/346 347/396/357 335/369/333
f 335/369/333 347/396/357 348/385/347
f 336/370/334 348/385/347 337/371/335
f 337/371/335 349/398/359 350/386/348
f 350/386/348 351/387/349 339/374/338
f 351/387/349 352/388/350 340/376/340
f 352/388/350 353/402/363 341/389/351
f 341/389/351 353/402/363 354/390/352
f 342/377/341 354/390/352 355/391/353
f 355/392/353 356/393/354 344/381/343
f 356/393/354 357/394/355 345/383/345
f 357/394/355 358/407/368 346/384/346
f 346/384/346 358/407/368 359/395/356
f 347/396/357 359/395/356 360/397/358
f 348/385/347 360/397/358 349/398/359
f 361/399/360 362/411/372 350/386/348
f 350/386/348 362/411/372 363/400/361
f 363/400/361 364/401/362 352/388/350
f 364/401/362 365/403/364 353/402/363
f 365/403/364 366/404/365 354/390/352
f 366/404/365 367/415/376 355/391/353
f 355/392/353 367/417/376 368/405/366
f 356/393/354 368/405/366 369/406/367
f 369/406/367 370/420/380 358/407/368
f 358/407/368 370/420/380 371/408/369
f 371/408/369 372/409/370 360/397/358
f 372/409/370 361/399/360 349/398/359
f 373/410/371 374/424/384 362/411/372
f 362/411/372 374/424/384 375/412/373
f 375/412/373 376/426/386 364/401/362
f 364/401/362 376/426/386 377/413/374
f 365/403/364 377/413/374 378/414/375
f 378/414/375 379/429/377 367/415/376
f 379/416/377 380/418/378 368/405/366
f 380/418/378 381/419/379 369/406/367
f 381/419/379 382/421/381 370/420/380
f 382/421/381 383/422/382 371/408/369
f 383/422/382 384/434/393 372/409/370
f 372/409/370 384/434/393 373/410/371
f 385/423/383 386/437/396 374/424/384
f 374/424/384 386/437/396 387/425/385
f 387/425/385 388/440/399 376/426/386
f 376/426/386 388/440/399 389/427/387
f 377/413/374 389/427/387 390/428/388
f 390/428/388 391/443/389 379/429/377
f 391/430/389 392/445/403 380/418/378
f 380/418/378 392/445/403 393/431/390
f 393/431/390 394/432/391 382/421/381
f 394/432/391 395/433/392 383/422/382
f 395/433/392 396/435/394 384/434/393
f 396/435/394 385/423/383 373/410/371
f 397/436/395 398/438/397 386/437/396
f 398/438/397 399/439/398 387/425/385
f 399/439/398 400/441/400 388/440/399
f 400/441/400 401/454/412 389/427/387
f 389/427/387 401/454/412 402/442/401
f 402/442/401 403/457/402 391/443/389
f 403/444/402 404/446/404 392/445/403
f 404/446/404 405/447/405 393/431/390
f 405/447/405 406/461/418 394/432/391
f 394/432/391 406/461/418 407/448/406
f 395/433/392 407/448/406 408/449/407
f 408/449/407 397/436/395 385/423/383
f 409/450/408 410/451/409 398/438/397
f 410/451/409 411/452/410 399/439/398
f 411/452/410 412/453/411 400/441/400
f 412/453/411 413/455/413 401/454/412
f 413/455/413 414/456/414 402/442/401
f 414/456/414 415/468/415 403/457/402
f 415/458/415 416/459/416 404/446/404
f 416/459/416 417/460/417 405/447/405
f 417/460/417 418/462/419 406/461/418
f 418/462/419 419/473/429 407/448/406
f 407/448/406 419/473/429 420/463/420
f 408/449/407 420/463/420 409/450/408
f 421/464/421 422/476/432 410/451/409
f 410/451/409 422/476/432 423/465/422
f 411/452/410 423/465/422 424/466/423
f 424/466/423 425/478/434 413/455/413
f 413/455/413 425/478/434 426/467/424
f 426/467/424 427/481/425 415/468/415
f 427/469/425 428/470/426 416/459/416
f 428/470/426 429/471/427 417/460/417
f 429/471/427 430/485/439 418/462/419
f 418/462/419 430/485/439 431/472/428
f 431/472/428 432/474/430 420/463/420
f 432/474/430 421/464/421 409/450/408
f 421/464/421 433/488/442 434/475/431
f 434/475/431 435/491/445 423/465/422
f 423/465/422 435/491/445 436/477/433
f 436/477/433 437/479/435 425/478/434
f 437/479/435 438/494/448 426/467/424
f 426/467/424 438/494/448 439/480/436
f 439/482/436 440/483/437 428/470/426
f 440/483/437 441/484/438 429/471/427
f 441/484/438 442/499/452 430/485/439
f 430/485/439 442/499/452 443/486/440
f 431/472/428 443/486/440 444/487/441
f 444/487/441 433/488/442 421/464/421
f 433/488/442 445/502/455 446/489/443
f 434/475/431 446/489/443 447/490/444
f 435/491/445 447/490/444 448/492/446
f 448/492/446 449/506/459 437/479/435
f 437/479/435 449/506/459 450/493/447
f 438/494/448 450/493/447 451/495/449
f 451/496/449 452/510/463 440/483/437
f 440/483/437 452/510/463 453/497/450
f 441/484/438 453/497/450 454/498/451
f 454/498/451 455/513/466 443/486/440
f 443/486/440 455/513/466 456/500/453
f 456/500/453 445/502/455 433/488/442
f 457/501/454 458/503/456 446/489/443
f 458/503/456 459/504/457 447/490/444
f 459/504/457 460/505/458 448/492/446
f 460/505/458 461/507/460 449/506/459
f 461/507/460 462/508/461 450/493/447
f 462/508/461 463/520/473 451/495/449
f 451/496/449 463/522/473 464/509/462
f 452/510/463 464/509/462 465/511/464
f 465/511/464 466/512/465 454/498/451
f 466/512/465 467/514/467 455/513/466
f 467/514/467 468/515/468 456/500/453
f 468/515/468 457/501/454 445/502/455
f 469/516/469 470/527/566 458/503/456
f 458/503/456 470/527/566 471/517/470
f 471/517/470 472/529/567 460/505/458
f 460/505/458 472/529/567 473/518/471
f 473/518/471 474/519/472 462/508/461
f 474/519/472 475/533/474 463/520/473
f 475/521/474 476/535/568 464/509/462
f 464/509/462 476/535/568 477/523/475
f 477/523/475 478/524/476 466/512/465
f 478/524/476 479/525/477 467/514/467
f 479/525/477 480/540/569 468/515/468
f 468/515/468 480/540/569 469/516/469
s 0
f 469/516/186 481/541/186 482/526/186
f 482/526/185 483/544/185 471/517/185
f 471/517/184 483/544/184 484/528/184
f 472/529/183 484/528/183 485/530/183
f 473/518/478 485/530/478 486/531/478
f 474/519/479 486/531/479 487/532/479
f 487/534/480 488/536/480 476/535/480
f 488/536/191 489/537/191 477/523/191
f 489/537/190 490/538/190 478/524/190
f 490/538/189 491/551/189 479/525/189
f 479/525/188 491/551/188 492/539/188
f 480/540/187 492/539/187 481/541/187
f 493/542/570 494/543/570 482/526/570
f 494/543/571 495/555/571 483/544/571
f 483/544/196 495/555/196 496/545/196
f 496/545/195 497/546/195 485/530/195
f 497/546/194 498/547/194 486/531/194
f 498/547/193 499/559/193 487/532/193
f 499/548/204 500/561/204 488/536/204
f 488/536/203 500/561/203 501/549/203
f 489/537/202 501/549/202 502/550/202
f 502/550/201 503/565/201 491/551/201
f 491/551/200 503/565/200 504/552/200
f 504/552/199 493/542/199 481/541/199
f 505/553/210 506/554/210 494/543/210
f 506/554/483 507/570/483 495/555/483
f 495/555/208 507/570/208 508/556/208
f 496/545/207 508/556/207 509/557/207
f 509/557/206 510/558/206 498/547/206
f 510/558/205 511/574/205 499/559/205
f 511/560/216 512/562/216 500/561/216
f 512/562/215 513/563/215 501/549/215
f 513/563/214 514/564/214 502/550/214
f 514/564/213 515/566/213 503/565/213
f 515/566/212 516/567/212 504/552/212
f 516/567/572 505/553/572 493/542/572
f 517/568/573 518/569/573 506/554/573
f 518/569/227 519/571/227 507/570/227
f 519/571/486 520/582/486 508/556/486
f 508/556/487 520/582/487 521/572/487
f 521/572/488 522/584/488 510/558/488
f 510/558/489 522/584/489 523/573/489
f 523/575/490 524/576/490 512/562/490
f 524/576/491 525/577/491 513/563/491
f 525/577/492 526/589/492 514/564/492
f 514/564/231 526/589/231 527/578/231
f 515/566/230 527/578/230 528/579/230
f 528/579/574 517/568/574 505/553/574
f 517/568/494 529/593/494 530/580/494
f 530/580/495 531/581/495 519/571/495
f 531/581/496 532/596/496 520/582/496
f 520/582/497 532/596/497 533/583/497
f 533/583/498 534/598/498 522/584/498
f 522/584/499 534/598/499 535/585/499
f 535/586/500 536/601/500 524/576/500
f 524/576/501 536/601/501 537/587/501
f 525/577/502 537/587/502 538/588/502
f 538/588/503 539/590/503 527/578/503
f 539/590/504 540/591/504 528/579/504
f 540/591/575 529/593/575 517/568/575
f 541/592/506 542/606/506 530/580/506
f 530/580/507 542/606/507 543/594/507
f 531/581/508 543/594/508 544/595/508
f 532/596/509 544/595/509 545/597/509
f 545/597/510 546/599/510 534/598/510
f 546/599/511 547/611/511 535/585/511
f 547/600/512 548/613/512 536/601/512
f 536/601/513 548/613/513 549/602/513
f 537/587/514 549/602/514 550/603/514
f 550/603/515 551/616/515 539/590/515
f 539/590/516 551/616/516 552/604/516
f 552/604/517 541/592/517 529/593/517
f 553/605/518 554/607/518 542/606/518
f 554/607/519 555/608/519 543/594/519
f 555/608/520 556/621/520 544/595/520
f 544/595/521 556/621/521 557/609/521
f 557/609/522 558/624/522 546/599/522
f 546/599/523 558/624/523 559/610/523
f 559/612/524 560/627/524 548/613/524
f 548/613/525 560/627/525 561/614/525
f 549/602/526 561/614/526 562/615/526
f 562/615/527 563/617/527 551/616/527
f 563/617/528 564/618/528 552/604/528
f 564/618/529 553/605/529 541/592/529
f 565/619/530 566/632/530 554/607/530
f 554/607/531 566/632/531 567/620/531
f 567/620/532 568/622/532 556/621/532
f 568/622/533 569/623/533 557/609/533
f 569/623/534 570/633/534 558/624/534
f 558/624/535 570/633/535 571/625/535
f 571/626/536 572/628/536 560/627/536
f 572/628/537 573/629/537 561/614/537
f 573/629/538 574/630/538 562/615/538
f 574/630/539 575/634/539 563/617/539
f 563/617/540 575/634/540 576/631/540
f 564/618/541 576/631/541 565/619/541
f 1/3/542 2/2/542 566/632/542
f 566/632/543 2/2/543 3/5/543
f 3/5/544 4/7/544 568/622/544
f 568/622/545 4/7/545 5/8/545
f 569/623/546 5/8/546 6/10/546
f 570/633/547 6/10/547 7/12/547
f 7/15/548 8/14/548 572/628/548
f 8/14/549 9/17/549 573/629/549
f 9/17/550 10/19/550 574/630/550
f 574/630/551 10/19/551 11/20/551
f 11/20/552 12/22/552 576/631/552
f 12/22/553 1/3/553 565/619/553
